<svg width="83" height="83" viewBox="0 0 83 83" fill="none" xmlns="http://www.w3.org/2000/svg">
<circle cx="41.5" cy="41.5" r="41.5" transform="rotate(-180 41.5 41.5)" fill="#FB6A68"/>
<path d="M48.3317 41.5C48.3317 37.7262 45.2731 34.6661 41.4992 34.6661C37.7252 34.6661 34.665 37.7262 34.665 41.5C34.665 45.2738 37.7252 48.3339 41.4992 48.3339C45.2731 48.3339 48.3317 45.2738 48.3317 41.5ZM52.0261 41.5C52.0261 47.3138 47.3132 52.0265 41.4992 52.0265C35.6851 52.0265 30.9723 47.3138 30.9723 41.5C30.9723 35.6862 35.6851 30.9735 41.4992 30.9735C47.3132 30.9735 52.0261 35.6862 52.0261 41.5ZM33.0156 30.5561C33.0158 31.0427 32.8717 31.5183 32.6016 31.923C32.3314 32.3276 31.9473 32.6431 31.4979 32.8295C31.0484 33.0158 30.5538 33.0648 30.0765 32.97C29.5993 32.8753 29.1608 32.6412 28.8167 32.2973C28.4725 31.9534 28.238 31.5151 28.1429 31.038C28.0478 30.5608 28.0963 30.0662 28.2823 29.6166C28.4683 29.167 28.7835 28.7827 29.1879 28.5122C29.5924 28.2418 30.068 28.0973 30.5545 28.0971C31.2067 28.0974 31.8331 28.3565 32.2944 28.8176C32.7556 29.2787 33.015 29.9039 33.0156 30.5561ZM49.7815 58.1865C51.7803 58.0955 52.8666 57.7626 53.5886 57.4813C54.5457 57.1087 55.2287 56.6649 55.9467 55.9479C56.6647 55.2309 57.1092 54.5487 57.4801 53.5916C57.7616 52.87 58.0945 51.7833 58.1854 49.7846C58.2848 47.6238 58.3046 46.9746 58.3046 41.5002C58.3046 36.0257 58.2831 35.3784 58.1854 33.2157C58.0943 31.217 57.759 30.1325 57.4801 29.4088C57.1075 28.4517 56.6637 27.7688 55.9467 27.0508C55.2296 26.3328 54.5474 25.8883 53.5886 25.5174C52.867 25.236 51.7803 24.903 49.7815 24.8122C47.6206 24.7128 46.9714 24.693 41.4992 24.693C36.0269 24.693 35.3771 24.7144 33.2144 24.8122C31.2156 24.9032 30.1311 25.2386 29.4073 25.5174C28.4502 25.8883 27.7672 26.3338 27.0492 27.0508C26.3312 27.7678 25.8884 28.4517 25.5158 29.4088C25.2343 30.1304 24.9014 31.217 24.8105 33.2157C24.7111 35.3784 24.6913 36.0257 24.6913 41.5002C24.6913 46.9746 24.7111 47.622 24.8105 49.7846C24.9016 51.7833 25.2361 52.8696 25.5158 53.5916C25.8884 54.5487 26.3322 55.2316 27.0492 55.9479C27.7663 56.6643 28.4502 57.1087 29.4073 57.4813C30.1289 57.7627 31.2156 58.0956 33.2144 58.1865C35.3753 58.2859 36.0245 58.3057 41.4992 58.3057C46.9739 58.3057 47.6212 58.2859 49.7815 58.1865ZM49.9513 21.1241C52.1337 21.2235 53.625 21.5696 54.9274 22.0763C56.2762 22.5997 57.418 23.3017 58.559 24.4409C59.7 25.58 60.4003 26.7236 60.9236 28.0723C61.4304 29.3755 61.7765 30.8659 61.8758 33.0483C61.9769 35.2341 62 35.9329 62 41.5C62 47.0671 61.9769 47.7659 61.8758 49.9517C61.7765 52.1343 61.4304 53.6245 60.9236 54.9277C60.4003 56.2756 59.6998 57.4205 58.559 58.5591C57.4181 59.6978 56.2762 60.3989 54.9274 60.9237C53.6225 61.4304 52.1337 61.7765 49.9513 61.8759C47.7642 61.9752 47.0665 62 41.4992 62C35.9318 62 35.233 61.9769 33.0471 61.8759C30.8645 61.7765 29.3742 61.4304 28.071 60.9237C26.723 60.3989 25.5804 59.6983 24.4394 58.5591C23.2984 57.42 22.5996 56.2756 22.0747 54.9277C21.568 53.6245 21.2203 52.1341 21.1225 49.9517C21.0231 47.7643 21 47.0671 21 41.5C21 35.9329 21.0231 35.2341 21.1225 33.0483C21.2219 30.8657 21.568 29.3747 22.0747 28.0723C22.5996 26.7244 23.3002 25.5818 24.4394 24.4409C25.5786 23.2999 26.723 22.5997 28.0693 22.0763C29.3742 21.5696 30.8647 21.2219 33.0455 21.1241C35.2313 21.0248 35.9302 21 41.4975 21C47.0649 21 47.7642 21.0231 49.9513 21.1241Z" fill="white"/>
</svg>
