<svg width="136" height="25" viewBox="0 0 136 25" fill="none" xmlns="http://www.w3.org/2000/svg">
<path d="M6.21679 23.0637C4.26458 22.0132 2.74039 20.5491 1.64423 18.6712C0.548076 16.7947 0 14.6703 0 12.2966C0 9.92415 0.548076 7.80752 1.64423 5.94536C2.74039 4.08319 4.26458 2.62687 6.21679 1.57638C8.16899 0.525895 10.3613 0 12.7937 0C15.2562 0 17.4629 0.525895 19.4151 1.57638C21.3673 2.62817 22.8901 4.0845 23.9876 5.94536C25.0838 7.80752 25.6318 9.92546 25.6318 12.2966C25.6318 14.669 25.0838 16.7947 23.9876 18.6712C22.8914 20.5491 21.3673 22.0132 19.4151 23.0637C17.4629 24.1155 15.2549 24.6401 12.7937 24.6401C10.3613 24.6414 8.16899 24.1155 6.21679 23.0637ZM17.93 17.7486C19.282 16.368 19.9566 14.5502 19.9566 12.2979C19.9566 10.0455 19.2807 8.22902 17.93 6.84708C16.5781 5.46644 14.8673 4.77481 12.795 4.77481C10.7228 4.77481 9.01851 5.46644 7.68225 6.84708C6.34598 8.22902 5.67784 10.0455 5.67784 12.2979C5.67784 14.5502 6.34598 16.368 7.68225 17.7486C9.01851 19.1306 10.7228 19.8209 12.795 19.8209C14.866 19.8209 16.5781 19.1306 17.93 17.7486Z" fill="#A9DCFD"/>
<path d="M11.6999 23.0637C9.74774 22.0132 8.22355 20.5491 7.12739 18.6712C6.03123 16.7947 5.48315 14.6703 5.48315 12.2966C5.48315 9.92415 6.03123 7.80752 7.12739 5.94536C8.22355 4.08319 9.74774 2.62687 11.6999 1.57638C13.6521 0.525895 15.8445 0 18.2769 0C20.7393 0 22.946 0.525895 24.8982 1.57638C26.8504 2.62817 28.3733 4.0845 29.4708 5.94536C30.5669 7.80752 31.115 9.92546 31.115 12.2966C31.115 14.669 30.5669 16.7947 29.4708 18.6712C28.3746 20.5491 26.8504 22.0132 24.8982 23.0637C22.946 24.1155 20.738 24.6401 18.2769 24.6401C15.8445 24.6414 13.6521 24.1155 11.6999 23.0637ZM23.4119 17.7486C24.7638 16.368 25.4385 14.5502 25.4385 12.2979C25.4385 10.0455 24.7625 8.22902 23.4119 6.84708C22.0599 5.46644 20.3491 4.77481 18.2769 4.77481C16.2046 4.77481 14.5004 5.46644 13.1641 6.84708C11.8278 8.22902 11.1597 10.0455 11.1597 12.2979C11.1597 14.5502 11.8278 16.368 13.1641 17.7486C14.5004 19.1306 16.2046 19.8209 18.2769 19.8209C20.3491 19.8209 22.0613 19.1306 23.4119 17.7486Z" fill="#61A0FA"/>
<path d="M17.1815 23.0637C15.2293 22.0132 13.7051 20.5491 12.609 18.6712C11.5128 16.7947 10.9647 14.6703 10.9647 12.2966C10.9647 9.92415 11.5128 7.80752 12.609 5.94536C13.7051 4.08319 15.2293 2.62687 17.1815 1.57638C19.1337 0.525895 21.326 0 23.7584 0C26.2209 0 28.4276 0.525895 30.3798 1.57638C32.332 2.62817 33.8562 4.0845 34.9523 5.94536C36.0485 7.80752 36.5966 9.92546 36.5966 12.2966C36.5966 14.669 36.0485 16.7947 34.9523 18.6712C33.8562 20.5491 32.332 22.0132 30.3798 23.0637C28.4276 24.1155 26.2196 24.6401 23.7584 24.6401C21.326 24.6414 19.1337 24.1155 17.1815 23.0637ZM28.8934 17.7486C30.2454 16.368 30.92 14.5502 30.92 12.2979C30.92 10.0455 30.2441 8.22902 28.8934 6.84708C27.5415 5.46644 25.8307 4.77481 23.7584 4.77481C21.6862 4.77481 19.9819 5.46644 18.6457 6.84708C17.3094 8.22902 16.6413 10.0455 16.6413 12.2979C16.6413 14.5502 17.3094 16.368 18.6457 17.7486C19.9819 19.1306 21.6862 19.8209 23.7584 19.8209C25.8307 19.8209 27.5428 19.1306 28.8934 17.7486Z" fill="#2659B3"/>
<path d="M22.7374 23.0637C20.7852 22.0132 19.261 20.5491 18.1649 18.6712C17.0687 16.7947 16.5206 14.6703 16.5206 12.2966C16.5206 9.92415 17.0687 7.80752 18.1649 5.94536C19.261 4.08319 20.7852 2.62687 22.7374 1.57638C24.6896 0.525895 26.8819 0 29.3144 0C31.7768 0 33.9835 0.525895 35.937 1.57638C37.8892 2.62817 39.4121 4.0845 40.5096 5.94536C41.6057 7.80752 42.1538 9.92546 42.1538 12.2966C42.1538 14.669 41.6057 16.7947 40.5096 18.6712C39.4134 20.5491 37.8892 22.0132 35.937 23.0637C33.9848 24.1155 31.7768 24.6401 29.3144 24.6401C26.8819 24.6414 24.6896 24.1155 22.7374 23.0637ZM34.4493 17.7486C35.8013 16.368 36.4759 14.5502 36.4759 12.2979C36.4759 10.0455 35.8 8.22902 34.4493 6.84708C33.0974 5.46644 31.3866 4.77481 29.3144 4.77481C27.2421 4.77481 25.5378 5.46644 24.2016 6.84708C22.8653 8.22902 22.1972 10.0455 22.1972 12.2979C22.1972 14.5502 22.8653 16.368 24.2016 17.7486C25.5378 19.1306 27.2421 19.8209 29.3144 19.8209C31.3866 19.8209 33.0987 19.1306 34.4493 17.7486Z" fill="#082E83"/>
<path d="M54.8143 16.2446C54.077 15.8479 53.5015 15.2946 53.0878 14.586C52.6742 13.8774 52.4667 13.0748 52.4667 12.1796C52.4667 11.2844 52.6729 10.4845 53.0878 9.78114C53.5015 9.07777 54.077 8.52838 54.8143 8.13168C55.5516 7.73497 56.3789 7.53662 57.2976 7.53662C58.2267 7.53662 59.0606 7.73497 59.7979 8.13168C60.5352 8.52838 61.1107 9.07907 61.5243 9.78114C61.938 10.4845 62.1455 11.2831 62.1455 12.1796C62.1455 13.0761 61.938 13.8774 61.5243 14.586C61.1107 15.2946 60.5352 15.8479 59.7979 16.2446C59.0606 16.6413 58.2267 16.8396 57.2976 16.8396C56.3802 16.8396 55.5516 16.6413 54.8143 16.2446ZM59.2368 14.2375C59.747 13.7156 60.0028 13.0305 60.0028 12.1796C60.0028 11.3288 59.7483 10.6437 59.2368 10.1217C58.7265 9.59975 58.0806 9.33876 57.2976 9.33876C56.5146 9.33876 55.8713 9.59975 55.3676 10.1217C54.8626 10.6437 54.6107 11.3288 54.6107 12.1796C54.6107 13.0305 54.8626 13.7169 55.3676 14.2375C55.8726 14.7595 56.5159 15.0205 57.2976 15.0205C58.0806 15.0192 58.7265 14.7595 59.2368 14.2375Z" fill="black"/>
<path d="M73.0824 15.2041V18.1873C73.0824 18.2473 73.0341 18.2969 72.9728 18.2969H71.3024C71.1863 18.2969 71.0923 18.2029 71.0923 18.0868V16.7218H64.0847V18.1873C64.0847 18.2486 64.0351 18.2982 63.9738 18.2982H62.2408C62.1691 18.2982 62.1104 18.2395 62.1104 18.1677V15.1115C62.1104 15.0045 62.1965 14.9171 62.3048 14.9171H62.5357C63.1138 14.8949 63.5079 14.523 63.718 13.8026C63.9281 13.0823 64.0664 11.9261 64.1343 10.6094L64.2361 8.08695C64.2452 7.83509 64.4527 7.77637 64.7046 7.77637H71.2698C71.5282 7.77637 71.7383 7.98646 71.7383 8.24484V14.8035C71.7383 14.8662 71.7892 14.9171 71.8518 14.9171H72.794C72.9545 14.9171 73.0824 15.0462 73.0824 15.2041ZM65.8203 13.4542C65.7016 14.0767 65.4928 14.5478 65.1913 14.8649C65.1731 14.8844 65.1861 14.9171 65.2135 14.9171H69.6138V9.68812C69.6138 9.62809 69.5655 9.5785 69.5042 9.5785H66.2314C66.1726 9.5785 66.1466 9.56937 66.1439 9.62809L66.0748 10.7621C66.0291 11.8074 65.9443 12.7965 65.8203 13.4542Z" fill="black"/>
<path d="M75.8037 16.2446C75.0664 15.8479 74.4909 15.2946 74.0772 14.586C73.6635 13.8774 73.4561 13.0748 73.4561 12.1796C73.4561 11.2844 73.6622 10.4845 74.0772 9.78114C74.4909 9.07777 75.0664 8.52838 75.8037 8.13168C76.541 7.73497 77.3683 7.53662 78.287 7.53662C79.2161 7.53662 80.05 7.73497 80.7873 8.13168C81.5246 8.52838 82.1 9.07907 82.5137 9.78114C82.9274 10.4845 83.1349 11.2831 83.1349 12.1796C83.1349 13.0761 82.9274 13.8774 82.5137 14.586C82.1 15.2946 81.5246 15.8479 80.7873 16.2446C80.05 16.6413 79.2161 16.8396 78.287 16.8396C77.3683 16.8396 76.5397 16.6413 75.8037 16.2446ZM80.2261 14.2375C80.7364 13.7156 80.9921 13.0305 80.9921 12.1796C80.9921 11.3288 80.7377 10.6437 80.2261 10.1217C79.7159 9.59975 79.07 9.33876 78.287 9.33876C77.504 9.33876 76.8607 9.59975 76.357 10.1217C75.8519 10.6437 75.6001 11.3288 75.6001 12.1796C75.6001 13.0305 75.8519 13.7169 76.357 14.2375C76.8607 14.7595 77.5053 15.0205 78.287 15.0205C79.0687 15.0192 79.7159 14.7595 80.2261 14.2375Z" fill="black"/>
<path d="M91.6744 8.63254C92.3321 9.00054 92.845 9.51469 93.2143 10.1724C93.5823 10.8301 93.7676 11.5843 93.7676 12.4352C93.7676 13.3082 93.564 14.082 93.1556 14.7567C92.7471 15.4313 92.1743 15.9559 91.4383 16.3304C90.701 16.705 89.8619 16.8916 88.921 16.8916C87.3446 16.8916 86.1258 16.3696 85.2645 15.3269C84.4033 14.2843 83.9713 12.781 83.9713 10.8196C83.9713 8.99402 84.3628 7.54813 85.1445 6.48198C85.9274 5.41584 87.1228 4.71247 88.7331 4.37318L92.6741 3.53149C92.8254 3.49887 92.9716 3.60065 92.9964 3.75203L93.2156 5.1157C93.2391 5.26186 93.1438 5.40018 92.999 5.43019L89.4312 6.15966C88.3312 6.38672 87.5091 6.77168 86.9649 7.31585C86.4494 7.8313 86.1375 8.54381 86.0292 9.45597C86.024 9.50295 86.0814 9.53165 86.1141 9.49512C86.5016 9.06318 86.961 8.7252 87.4921 8.48117C88.0702 8.21496 88.7057 8.08185 89.3973 8.08185C90.256 8.07924 91.0167 8.26455 91.6744 8.63254ZM90.8667 14.4161C91.3482 13.9111 91.5896 13.2677 91.5896 12.4861C91.5896 11.7031 91.3482 11.0741 90.8667 10.5978C90.3852 10.1215 89.7523 9.88399 88.9706 9.88399C88.1772 9.88399 87.5364 10.1228 87.0484 10.5978C86.5603 11.0741 86.3176 11.7031 86.3176 12.4861C86.3176 13.2795 86.5643 13.9267 87.0575 14.4252C87.5508 14.9237 88.1889 15.1743 88.9706 15.1743C89.7523 15.1743 90.3839 14.9211 90.8667 14.4161Z" fill="black"/>
<path d="M102.482 8.11423C103.179 8.49919 103.727 9.04466 104.124 9.74673C104.521 10.4501 104.719 11.2605 104.719 12.1792C104.719 13.0978 104.521 13.9108 104.124 14.6194C103.727 15.328 103.181 15.8761 102.482 16.261C101.786 16.6473 100.995 16.8391 100.11 16.8391C98.886 16.8391 97.9164 16.4307 97.2013 15.6138V18.991C97.2013 19.0797 97.1295 19.1515 97.0408 19.1515H95.2347C95.146 19.1515 95.0742 19.0797 95.0742 18.991V7.73449C95.0742 7.67969 95.1186 7.63532 95.1734 7.63532H96.8203C96.9742 7.63532 97.0982 7.75929 97.0982 7.91327V8.82543C97.4492 8.3948 97.8838 8.07117 98.3992 7.85585C98.9147 7.64054 99.485 7.53223 100.109 7.53223C100.993 7.53484 101.786 7.72797 102.482 8.11423ZM101.803 14.2371C102.308 13.7151 102.559 13.03 102.559 12.1792C102.559 11.3283 102.306 10.6432 101.803 10.1212C101.298 9.59927 100.654 9.33828 99.8725 9.33828C99.3623 9.33828 98.9029 9.45442 98.4945 9.6867C98.086 9.91898 97.7637 10.2504 97.5249 10.6811C97.2874 11.1117 97.1674 11.6115 97.1674 12.1779C97.1674 12.7455 97.2861 13.244 97.5249 13.6746C97.7624 14.1053 98.086 14.438 98.4945 14.6703C98.9029 14.9026 99.3623 15.0187 99.8725 15.0187C100.654 15.0187 101.298 14.759 101.803 14.2371Z" fill="black"/>
<path d="M114.353 12.8592H107.424C107.549 13.5286 107.874 14.0584 108.401 14.4499C108.928 14.8414 109.583 15.0371 110.365 15.0371C111.277 15.0371 112.043 14.7618 112.662 14.2111C112.758 14.125 112.907 14.1367 112.992 14.2346L113.849 15.2198C113.92 15.3008 113.918 15.4234 113.845 15.503C113.459 15.9206 112.984 16.2416 112.424 16.4661C111.8 16.7153 111.097 16.8406 110.315 16.8406C109.317 16.8406 108.439 16.6422 107.679 16.2455C106.92 15.8488 106.333 15.2955 105.919 14.5869C105.505 13.8784 105.298 13.0758 105.298 12.1806C105.298 11.2959 105.499 10.4998 105.902 9.79125C106.304 9.08266 106.862 8.52936 107.578 8.13266C108.291 7.73595 109.097 7.5376 109.993 7.5376C110.878 7.5376 111.669 7.73334 112.365 8.12483C113.062 8.51631 113.606 9.06569 113.998 9.77428C114.389 10.4829 114.585 11.3024 114.585 12.2315C114.585 12.3411 114.579 12.4834 114.567 12.6608C114.558 12.7718 114.465 12.8592 114.353 12.8592ZM108.265 9.84084C107.794 10.2441 107.508 10.7791 107.407 11.4485H112.56C112.469 10.7908 112.192 10.2584 111.726 9.84997C111.261 9.44152 110.682 9.23795 109.99 9.23795C109.312 9.23664 108.736 9.43761 108.265 9.84084Z" fill="black"/>
<path d="M116.313 7.63818H118.146C118.227 7.63818 118.293 7.70343 118.293 7.78434V11.3286H122.868V7.78434C122.868 7.70343 122.933 7.63818 123.014 7.63818H124.847C124.928 7.63818 124.994 7.70343 124.994 7.78434V16.5745C124.994 16.6554 124.928 16.7206 124.847 16.7206H123.014C122.933 16.7206 122.868 16.6554 122.868 16.5745V13.132H118.293V16.5745C118.293 16.6554 118.227 16.7206 118.146 16.7206H116.313C116.232 16.7206 116.167 16.6554 116.167 16.5745V7.78434C116.167 7.70343 116.232 7.63818 116.313 7.63818Z" fill="black"/>
<path d="M128.668 16.2446C127.931 15.8479 127.356 15.2946 126.942 14.586C126.528 13.8774 126.321 13.0748 126.321 12.1796C126.321 11.2844 126.527 10.4845 126.942 9.78114C127.356 9.07777 127.931 8.52838 128.668 8.13168C129.406 7.73497 130.233 7.53662 131.152 7.53662C132.081 7.53662 132.915 7.73497 133.652 8.13168C134.389 8.52838 134.965 9.07907 135.378 9.78114C135.792 10.4845 136 11.2831 136 12.1796C136 13.0761 135.792 13.8774 135.378 14.586C134.965 15.2946 134.389 15.8479 133.652 16.2446C132.915 16.6413 132.081 16.8396 131.152 16.8396C130.233 16.8396 129.406 16.6413 128.668 16.2446ZM133.091 14.2375C133.601 13.7156 133.857 13.0305 133.857 12.1796C133.857 11.3288 133.601 10.6437 133.091 10.1217C132.581 9.59975 131.935 9.33876 131.152 9.33876C130.369 9.33876 129.725 9.59975 129.222 10.1217C128.717 10.6437 128.465 11.3288 128.465 12.1796C128.465 13.0305 128.717 13.7169 129.222 14.2375C129.727 14.7595 130.37 15.0205 131.152 15.0205C131.935 15.0192 132.581 14.7595 133.091 14.2375Z" fill="black"/>
<path d="M44.5047 24.878C45.8786 24.878 46.9925 23.7641 46.9925 22.3902C46.9925 21.0162 45.8786 19.9023 44.5047 19.9023C43.1307 19.9023 42.0168 21.0162 42.0168 22.3902C42.0168 23.7641 43.1307 24.878 44.5047 24.878Z" fill="#082E83"/>
</svg>
