<svg width="289" height="53" viewBox="0 0 289 53" fill="none" xmlns="http://www.w3.org/2000/svg">
<path d="M94.5714 51.6913C97.4911 51.6913 99.858 49.3244 99.858 46.4047C99.858 43.4849 97.4911 41.118 94.5714 41.118C91.6517 41.118 89.2848 43.4849 89.2848 46.4047C89.2848 49.3244 91.6517 51.6913 94.5714 51.6913Z" fill="#082E83"/>
<path d="M13.2107 49.0104C9.06224 46.7781 5.82334 43.6668 3.494 39.6764C1.16466 35.6888 0 31.1743 0 26.1302C0 21.0888 1.16466 16.591 3.494 12.6339C5.82334 8.67678 9.06224 5.58209 13.2107 3.34981C17.3591 1.11753 22.0178 0 27.1867 0C32.4194 0 37.1086 1.11753 41.257 3.34981C45.4055 5.58487 48.6416 8.67956 50.9737 12.6339C53.303 16.591 54.4677 21.0916 54.4677 26.1302C54.4677 31.1715 53.303 35.6888 50.9737 39.6764C48.6443 43.6668 45.4055 46.7781 41.257 49.0104C37.1086 51.2454 32.4166 52.3602 27.1867 52.3602C22.0178 52.363 17.3591 51.2454 13.2107 49.0104ZM38.1013 37.7159C40.9742 34.782 42.4078 30.9192 42.4078 26.133C42.4078 21.3467 40.9714 17.4867 38.1013 14.55C35.2285 11.6162 31.593 10.1465 27.1895 10.1465C22.7859 10.1465 19.1644 11.6162 16.3248 14.55C13.4852 17.4867 12.0654 21.3467 12.0654 26.133C12.0654 30.9192 13.4852 34.782 16.3248 37.7159C19.1644 40.6525 22.7859 42.1194 27.1895 42.1194C31.5902 42.1194 35.2285 40.6525 38.1013 37.7159Z" fill="#A9DCFD"/>
<path d="M24.8624 49.0104C20.714 46.7781 17.4751 43.6668 15.1457 39.6764C12.8164 35.6888 11.6517 31.1743 11.6517 26.1302C11.6517 21.0888 12.8164 16.591 15.1457 12.6339C17.4751 8.67678 20.714 5.58209 24.8624 3.34981C29.0109 1.11753 33.6695 0 38.8384 0C44.0711 0 48.7603 1.11753 52.9087 3.34981C57.0572 5.58487 60.2933 8.67956 62.6254 12.6339C64.9547 16.591 66.1194 21.0916 66.1194 26.1302C66.1194 31.1715 64.9547 35.6888 62.6254 39.6764C60.2961 43.6668 57.0572 46.7781 52.9087 49.0104C48.7603 51.2454 44.0683 52.3602 38.8384 52.3602C33.6695 52.363 29.0109 51.2454 24.8624 49.0104ZM49.7503 37.7159C52.6231 34.782 54.0568 30.9192 54.0568 26.133C54.0568 21.3467 52.6204 17.4867 49.7503 14.55C46.8774 11.6162 43.242 10.1465 38.8384 10.1465C34.4349 10.1465 30.8133 11.6162 27.9737 14.55C25.1342 17.4867 23.7144 21.3467 23.7144 26.133C23.7144 30.9192 25.1342 34.782 27.9737 37.7159C30.8133 40.6525 34.4349 42.1194 38.8384 42.1194C43.242 42.1194 46.8802 40.6525 49.7503 37.7159Z" fill="#61A0FA"/>
<path d="M36.5117 49.0104C32.3632 46.7781 29.1244 43.6668 26.795 39.6764C24.4657 35.6888 23.301 31.1743 23.301 26.1302C23.301 21.0888 24.4657 16.591 26.795 12.6339C29.1244 8.67678 32.3632 5.58209 36.5117 3.34981C40.6601 1.11753 45.3188 0 50.4877 0C55.7204 0 60.4096 1.11753 64.558 3.34981C68.7065 5.58487 71.9454 8.67956 74.2747 12.6339C76.604 16.591 77.7687 21.0916 77.7687 26.1302C77.7687 31.1715 76.604 35.6888 74.2747 39.6764C71.9454 43.6668 68.7065 46.7781 64.558 49.0104C60.4096 51.2454 55.7176 52.3602 50.4877 52.3602C45.3188 52.363 40.6601 51.2454 36.5117 49.0104ZM61.3995 37.7159C64.2724 34.782 65.7061 30.9192 65.7061 26.133C65.7061 21.3467 64.2696 17.4867 61.3995 14.55C58.5267 11.6162 54.8913 10.1465 50.4877 10.1465C46.0841 10.1465 42.4626 11.6162 39.623 14.55C36.7835 17.4867 35.3637 21.3467 35.3637 26.133C35.3637 30.9192 36.7835 34.782 39.623 37.7159C42.4626 40.6525 46.0841 42.1194 50.4877 42.1194C54.8913 42.1194 58.5295 40.6525 61.3995 37.7159Z" fill="#2659B3"/>
<path d="M48.3168 49.0104C44.1683 46.7781 40.9294 43.6668 38.6001 39.6764C36.2707 35.6888 35.1061 31.1743 35.1061 26.1302C35.1061 21.0888 36.2707 16.591 38.6001 12.6339C40.9294 8.67678 44.1683 5.58209 48.3168 3.34981C52.4652 1.11753 57.1239 0 62.2928 0C67.5255 0 72.2147 1.11753 76.3659 3.34981C80.5143 5.58487 83.7504 8.67956 86.0826 12.6339C88.4119 16.591 89.5765 21.0916 89.5765 26.1302C89.5765 31.1715 88.4119 35.6888 86.0826 39.6764C83.7532 43.6668 80.5143 46.7781 76.3659 49.0104C72.2174 51.2454 67.5255 52.3602 62.2928 52.3602C57.1239 52.363 52.4652 51.2454 48.3168 49.0104ZM73.2046 37.7159C76.0774 34.782 77.5111 30.9192 77.5111 26.133C77.5111 21.3467 76.0747 17.4867 73.2046 14.55C70.3317 11.6162 66.6964 10.1465 62.2928 10.1465C57.8892 10.1465 54.2677 11.6162 51.4281 14.55C48.5885 17.4867 47.1687 21.3467 47.1687 26.133C47.1687 30.9192 48.5885 34.782 51.4281 37.7159C54.2677 40.6525 57.8892 42.1194 62.2928 42.1194C66.6964 42.1194 70.3345 40.6525 73.2046 37.7159Z" fill="#082E83"/>
<path d="M116.482 34.519C114.916 33.676 113.693 32.5003 112.814 30.9945C111.935 29.4888 111.494 27.7834 111.494 25.8811C111.494 23.9788 111.932 22.2789 112.814 20.7842C113.693 19.2896 114.916 18.1221 116.482 17.2791C118.049 16.4361 119.807 16.0146 121.759 16.0146C123.734 16.0146 125.506 16.4361 127.072 17.2791C128.639 18.1221 129.862 19.2924 130.741 20.7842C131.62 22.2789 132.061 23.976 132.061 25.8811C132.061 27.7861 131.62 29.4888 130.741 30.9945C129.862 32.5003 128.639 33.676 127.072 34.519C125.506 35.362 123.734 35.7835 121.759 35.7835C119.81 35.7835 118.049 35.362 116.482 34.519ZM125.88 30.2541C126.964 29.1449 127.508 27.6891 127.508 25.8811C127.508 24.0731 126.967 22.6172 125.88 21.508C124.796 20.3988 123.423 19.8442 121.759 19.8442C120.096 19.8442 118.728 20.3988 117.658 21.508C116.585 22.6172 116.05 24.0731 116.05 25.8811C116.05 27.6891 116.585 29.1477 117.658 30.2541C118.731 31.3633 120.098 31.9179 121.759 31.9179C123.423 31.9152 124.796 31.3633 125.88 30.2541Z" fill="white"/>
<path d="M155.301 32.3084V38.6476C155.301 38.7751 155.199 38.8805 155.068 38.8805H151.519C151.272 38.8805 151.072 38.6809 151.072 38.4341V35.5335H136.181V38.6476C136.181 38.7779 136.076 38.8833 135.945 38.8833H132.263C132.11 38.8833 131.986 38.7585 131.986 38.606V32.1116C131.986 31.8842 132.169 31.6984 132.399 31.6984H132.89C134.118 31.6512 134.955 30.8609 135.402 29.3302C135.848 27.7995 136.142 25.3426 136.286 22.5446L136.503 17.1844C136.522 16.6492 136.963 16.5244 137.498 16.5244H151.449C151.998 16.5244 152.445 16.9709 152.445 17.5199V31.4571C152.445 31.5902 152.553 31.6984 152.686 31.6984H154.688C155.029 31.6984 155.301 31.9729 155.301 32.3084ZM139.869 28.5898C139.617 29.9126 139.173 30.9136 138.533 31.5875C138.494 31.6291 138.522 31.6984 138.58 31.6984H147.93V20.5869C147.93 20.4593 147.828 20.354 147.698 20.354H140.743C140.618 20.354 140.563 20.3345 140.557 20.4593L140.41 22.8691C140.313 25.0903 140.133 27.1922 139.869 28.5898Z" fill="white"/>
<path d="M161.087 34.519C159.52 33.676 158.297 32.5003 157.418 30.9945C156.539 29.4888 156.098 27.7834 156.098 25.8811C156.098 23.9788 156.536 22.2789 157.418 20.7842C158.297 19.2896 159.52 18.1221 161.087 17.2791C162.654 16.4361 164.412 16.0146 166.364 16.0146C168.338 16.0146 170.11 16.4361 171.677 17.2791C173.244 18.1221 174.467 19.2924 175.346 20.7842C176.225 22.2789 176.666 23.976 176.666 25.8811C176.666 27.7861 176.225 29.4888 175.346 30.9945C174.467 32.5003 173.244 33.676 171.677 34.519C170.11 35.362 168.338 35.7835 166.364 35.7835C164.412 35.7835 162.651 35.362 161.087 34.519ZM170.485 30.2541C171.569 29.1449 172.112 27.6891 172.112 25.8811C172.112 24.0731 171.572 22.6172 170.485 21.508C169.4 20.3988 168.028 19.8442 166.364 19.8442C164.7 19.8442 163.333 20.3988 162.263 21.508C161.189 22.6172 160.654 24.0731 160.654 25.8811C160.654 27.6891 161.189 29.1477 162.263 30.2541C163.333 31.3633 164.703 31.9179 166.364 31.9179C168.025 31.9152 169.4 31.3633 170.485 30.2541Z" fill="white"/>
<path d="M194.809 18.3439C196.207 19.1259 197.297 20.2185 198.081 21.6161C198.863 23.0137 199.257 24.6165 199.257 26.4245C199.257 28.2797 198.824 29.9241 197.957 31.3577C197.089 32.7914 195.871 33.9061 194.307 34.702C192.74 35.4978 190.957 35.8944 188.958 35.8944C185.608 35.8944 183.018 34.7852 181.188 32.5695C179.358 30.3539 178.44 27.1594 178.44 22.9915C178.44 19.112 179.272 16.0395 180.933 13.774C182.597 11.5084 185.137 10.0138 188.559 9.29277L196.933 7.50417C197.255 7.43485 197.566 7.65114 197.618 7.97281L198.084 10.8706C198.134 11.1812 197.932 11.4751 197.624 11.5389L190.042 13.089C187.705 13.5715 185.958 14.3896 184.801 15.5459C183.706 16.6413 183.043 18.1554 182.813 20.0937C182.802 20.1935 182.924 20.2545 182.993 20.1769C183.817 19.259 184.793 18.5408 185.922 18.0222C187.15 17.4566 188.5 17.1737 189.97 17.1737C191.795 17.1682 193.411 17.5619 194.809 18.3439ZM193.093 30.6339C194.116 29.5608 194.629 28.1937 194.629 26.5326C194.629 24.8688 194.116 23.5322 193.093 22.5201C192.069 21.5079 190.724 21.0032 189.063 21.0032C187.377 21.0032 186.016 21.5107 184.979 22.5201C183.942 23.5322 183.426 24.8688 183.426 26.5326C183.426 28.2186 183.95 29.5941 184.998 30.6534C186.046 31.7127 187.402 32.2451 189.063 32.2451C190.724 32.2451 192.067 31.7071 193.093 30.6339Z" fill="white"/>
<path d="M217.778 17.2426C219.259 18.0607 220.423 19.2198 221.266 20.7117C222.109 22.2063 222.531 23.9284 222.531 25.8806C222.531 27.8328 222.109 29.5604 221.266 31.0661C220.423 32.5719 219.261 33.7366 217.778 34.5546C216.297 35.3754 214.617 35.783 212.737 35.783C210.135 35.783 208.075 34.9151 206.555 33.1792V40.3558C206.555 40.5443 206.403 40.6968 206.214 40.6968H202.376C202.188 40.6968 202.035 40.5443 202.035 40.3558V16.4357C202.035 16.3192 202.13 16.2249 202.246 16.2249H205.746C206.073 16.2249 206.336 16.4884 206.336 16.8156V18.7539C207.082 17.8388 208.006 17.1511 209.101 16.6936C210.196 16.236 211.408 16.0059 212.734 16.0059C214.614 16.0114 216.297 16.4218 217.778 17.2426ZM216.333 30.2536C217.406 29.1444 217.941 27.6886 217.941 25.8806C217.941 24.0726 217.404 22.6167 216.333 21.5075C215.26 20.3983 213.893 19.8437 212.232 19.8437C211.148 19.8437 210.171 20.0905 209.303 20.5841C208.436 21.0777 207.751 21.7821 207.243 22.6972C206.738 23.6123 206.483 24.6743 206.483 25.8778C206.483 27.0841 206.736 28.1434 207.243 29.0585C207.748 29.9736 208.436 30.6807 209.303 31.1743C210.171 31.6679 211.148 31.9147 212.232 31.9147C213.893 31.9147 215.26 31.3629 216.333 30.2536Z" fill="white"/>
<path d="M243.001 27.3255H228.277C228.543 28.748 229.233 29.8739 230.354 30.7058C231.474 31.5377 232.866 31.9536 234.527 31.9536C236.465 31.9536 238.093 31.3685 239.408 30.1983C239.613 30.0153 239.929 30.0403 240.109 30.2482L241.931 32.3419C242.081 32.5138 242.078 32.7745 241.923 32.9436C241.102 33.831 240.093 34.5131 238.903 34.9901C237.577 35.5197 236.083 35.786 234.422 35.786C232.3 35.786 230.434 35.3645 228.82 34.5215C227.206 33.6785 225.959 32.5027 225.079 30.997C224.2 29.4912 223.76 27.7858 223.76 25.8835C223.76 24.0034 224.187 22.3118 225.043 20.8061C225.897 19.3003 227.084 18.1246 228.604 17.2816C230.121 16.4386 231.832 16.0171 233.737 16.0171C235.617 16.0171 237.297 16.433 238.778 17.2649C240.259 18.0969 241.415 19.2643 242.247 20.77C243.079 22.2758 243.495 24.0173 243.495 25.9916C243.495 26.2246 243.481 26.5268 243.456 26.904C243.437 27.1397 243.24 27.3255 243.001 27.3255ZM230.065 20.9115C229.064 21.7683 228.457 22.9053 228.241 24.3278H239.191C238.997 22.9302 238.409 21.7988 237.419 20.9309C236.432 20.0629 235.201 19.6303 233.731 19.6303C232.289 19.6276 231.066 20.0546 230.065 20.9115Z" fill="white"/>
<path d="M247.167 16.2305H251.063C251.235 16.2305 251.373 16.3691 251.373 16.541V24.0726H261.095V16.541C261.095 16.3691 261.234 16.2305 261.406 16.2305H265.302C265.474 16.2305 265.613 16.3691 265.613 16.541V35.2201C265.613 35.392 265.474 35.5307 265.302 35.5307H261.406C261.234 35.5307 261.095 35.392 261.095 35.2201V27.9049H251.373V35.2201C251.373 35.392 251.235 35.5307 251.063 35.5307H247.167C246.995 35.5307 246.856 35.392 246.856 35.2201V16.541C246.856 16.3691 246.995 16.2305 247.167 16.2305Z" fill="white"/>
<path d="M273.42 34.519C271.854 33.676 270.631 32.5003 269.752 30.9945C268.873 29.4888 268.432 27.7834 268.432 25.8811C268.432 23.9788 268.87 22.2789 269.752 20.7842C270.631 19.2896 271.854 18.1221 273.42 17.2791C274.987 16.4361 276.745 16.0146 278.697 16.0146C280.672 16.0146 282.444 16.4361 284.011 17.2791C285.577 18.1221 286.8 19.2924 287.679 20.7842C288.558 22.2789 288.999 23.976 288.999 25.8811C288.999 27.7861 288.558 29.4888 287.679 30.9945C286.8 32.5003 285.577 33.676 284.011 34.519C282.444 35.362 280.672 35.7835 278.697 35.7835C276.745 35.7835 274.987 35.362 273.42 34.519ZM282.818 30.2541C283.902 29.1449 284.446 27.6891 284.446 25.8811C284.446 24.0731 283.902 22.6172 282.818 21.508C281.734 20.3988 280.361 19.8442 278.697 19.8442C277.034 19.8442 275.666 20.3988 274.596 21.508C273.523 22.6172 272.988 24.0731 272.988 25.8811C272.988 27.6891 273.523 29.1477 274.596 30.2541C275.669 31.3633 277.036 31.9179 278.697 31.9179C280.361 31.9152 281.734 31.3633 282.818 30.2541Z" fill="white"/>
</svg>
