<svg width="280" height="56" viewBox="0 0 280 56" fill="none" xmlns="http://www.w3.org/2000/svg">
<path d="M7.86916 45.1483C5.39774 43.7401 3.46873 41.7761 2.08212 39.2609C0.6955 36.7457 0 33.8969 0 30.7193C0 27.5417 0.691126 24.7022 2.08212 22.2055C3.46873 19.7088 5.39774 17.7587 7.86916 16.3505C10.3406 14.9424 13.1138 14.2383 16.1932 14.2383C19.3077 14.2383 22.1027 14.9424 24.5742 16.3505C27.0456 17.7587 28.9746 19.7134 30.3612 22.2055C31.7478 24.7022 32.4433 27.537 32.4433 30.7193C32.4433 33.9016 31.7478 36.7457 30.3612 39.2609C28.9746 41.7761 27.0456 43.7401 24.5742 45.1483C22.1027 46.5565 19.3077 47.2605 16.1932 47.2605C13.1182 47.2605 10.3406 46.5565 7.86916 45.1483ZM22.6933 38.0241C24.4036 36.1713 25.2609 33.7394 25.2609 30.7193C25.2609 27.6992 24.408 25.2673 22.6933 23.4145C20.983 21.5616 18.8178 20.6352 16.1932 20.6352C13.5687 20.6352 11.4122 21.5616 9.72381 23.4145C8.031 25.2673 7.18676 27.6992 7.18676 30.7193C7.18676 33.7394 8.031 36.1759 9.72381 38.0241C11.4166 39.877 13.5731 40.8034 16.1932 40.8034C18.8178 40.7988 20.983 39.877 22.6933 38.0241Z" fill="#5287FF"/>
<path d="M69.1048 41.4558V52.0447C69.1048 52.2578 68.943 52.4338 68.7374 52.4338H63.1384C62.7491 52.4338 62.4341 52.1003 62.4341 51.6881V46.8429H38.9448V52.0447C38.9448 52.2625 38.7785 52.4385 38.5729 52.4385H32.7641C32.5235 52.4385 32.3267 52.23 32.3267 51.9753V41.1269C32.3267 40.7471 32.6154 40.4367 32.9784 40.4367H33.7525C35.6903 40.358 37.0113 39.0378 37.7156 36.4809C38.4198 33.924 38.8835 29.8199 39.1109 25.1461L39.4521 16.1923C39.4827 15.2983 40.1783 15.0898 41.0225 15.0898H63.0291C63.8951 15.0898 64.5993 15.8356 64.5993 16.7528V40.0337C64.5993 40.2561 64.77 40.4367 64.9799 40.4367H68.1381C68.6761 40.4367 69.1048 40.8953 69.1048 41.4558ZM44.7624 35.2441C44.3644 37.4536 43.6645 39.1258 42.6541 40.2514C42.5928 40.3209 42.6365 40.4367 42.7284 40.4367H57.4782V21.8759C57.4782 21.6628 57.3164 21.4868 57.1108 21.4868H46.1403C45.9434 21.4868 45.856 21.4544 45.8472 21.6628L45.6154 25.6881C45.4623 29.3984 45.178 32.9095 44.7624 35.2441Z" fill="#5287FF"/>
<path d="M78.2276 45.1483C75.7561 43.7401 73.8271 41.7761 72.4405 39.2609C71.0539 36.7457 70.3584 33.8969 70.3584 30.7193C70.3584 27.5417 71.0495 24.7022 72.4405 22.2055C73.8271 19.7088 75.7561 17.7587 78.2276 16.3505C80.699 14.9424 83.4722 14.2383 86.5516 14.2383C89.6661 14.2383 92.4611 14.9424 94.9326 16.3505C97.404 17.7587 99.333 19.7134 100.72 22.2055C102.106 24.7022 102.802 27.537 102.802 30.7193C102.802 33.9016 102.106 36.7457 100.72 39.2609C99.333 41.7761 97.404 43.7401 94.9326 45.1483C92.4611 46.5565 89.6661 47.2605 86.5516 47.2605C83.4722 47.2605 80.6946 46.5565 78.2276 45.1483ZM93.0516 38.0241C94.7619 36.1713 95.6193 33.7394 95.6193 30.7193C95.6193 27.6992 94.7663 25.2673 93.0516 23.4145C91.3413 21.5616 89.1762 20.6352 86.5516 20.6352C83.9271 20.6352 81.7706 21.5616 80.0822 23.4145C78.3894 25.2673 77.5452 27.6992 77.5452 30.7193C77.5452 33.7394 78.3894 36.1759 80.0822 38.0241C81.7706 39.877 83.9315 40.8034 86.5516 40.8034C89.1718 40.7988 91.3413 39.877 93.0516 38.0241Z" fill="#5287FF"/>
<path d="M131.424 18.1285C133.628 19.4348 135.348 21.2598 136.585 23.5944C137.819 25.929 138.44 28.6063 138.44 31.6265C138.44 34.7254 137.758 37.4722 136.389 39.867C135.019 42.2618 133.099 44.1239 130.632 45.4533C128.161 46.7827 125.348 47.4451 122.194 47.4451C116.91 47.4451 112.825 45.5923 109.938 41.8912C107.051 38.1902 105.603 32.854 105.603 25.8919C105.603 19.4116 106.915 14.2793 109.535 10.4948C112.16 6.71041 116.167 4.2137 121.564 3.00936L134.775 0.0216522C135.282 -0.0941503 135.772 0.267155 135.855 0.804478L136.59 5.64502C136.669 6.16382 136.349 6.65482 135.864 6.76136L123.905 9.3507C120.217 10.1567 117.462 11.5232 115.637 13.4547C113.91 15.2844 112.864 17.8136 112.501 21.0514C112.484 21.2182 112.676 21.3201 112.786 21.1904C114.085 19.6571 115.624 18.4574 117.405 17.5912C119.342 16.6463 121.473 16.1738 123.791 16.1738C126.669 16.1645 129.219 16.8223 131.424 18.1285ZM128.716 38.658C130.33 36.8654 131.14 34.5818 131.14 31.8071C131.14 29.0279 130.33 26.7952 128.716 25.1045C127.102 23.4138 124.981 22.5707 122.361 22.5707C119.701 22.5707 117.553 23.4184 115.917 25.1045C114.281 26.7952 113.468 29.0279 113.468 31.8071C113.468 34.6234 114.295 36.921 115.948 38.6904C117.601 40.4599 119.74 41.3493 122.361 41.3493C124.981 41.3493 127.098 40.4506 128.716 38.658Z" fill="#5287FF"/>
<path d="M167.655 16.2895C169.99 17.656 171.828 19.5922 173.157 22.0843C174.487 24.581 175.152 27.4575 175.152 30.7185C175.152 33.9795 174.487 36.8653 173.157 39.3806C171.828 41.8958 169.995 43.8413 167.655 45.2078C165.319 46.5789 162.668 47.2598 159.702 47.2598C155.599 47.2598 152.349 45.8099 149.952 42.9102V54.8981C149.952 55.2131 149.712 55.4679 149.414 55.4679H143.36C143.063 55.4679 142.822 55.2131 142.822 54.8981V14.9416C142.822 14.7471 142.971 14.5896 143.155 14.5896H148.675C149.191 14.5896 149.607 15.0296 149.607 15.5762V18.814C150.783 17.2855 152.24 16.1367 153.968 15.3724C155.695 14.6081 157.607 14.2236 159.698 14.2236C162.664 14.2329 165.319 14.9184 167.655 16.2895ZM165.376 38.0234C167.068 36.1705 167.913 33.7387 167.913 30.7185C167.913 27.6984 167.064 25.2666 165.376 23.4137C163.683 21.5609 161.526 20.6345 158.906 20.6345C157.196 20.6345 155.656 21.0467 154.287 21.8712C152.918 22.6957 151.837 23.8723 151.037 25.4009C150.241 26.9295 149.838 28.7036 149.838 30.7139C149.838 32.7289 150.237 34.4983 151.037 36.0269C151.833 37.5555 152.918 38.7367 154.287 39.5612C155.656 40.3857 157.196 40.798 158.906 40.798C161.526 40.798 163.683 39.8762 165.376 38.0234Z" fill="#5287FF"/>
<path d="M207.442 33.1314H184.215C184.635 35.5077 185.725 37.3883 187.492 38.7779C189.259 40.1676 191.455 40.8624 194.075 40.8624C197.132 40.8624 199.7 39.885 201.773 37.9303C202.097 37.6245 202.596 37.6662 202.88 38.0136L205.754 41.5109C205.99 41.7981 205.986 42.2335 205.741 42.516C204.446 43.9983 202.854 45.1378 200.977 45.9345C198.886 46.8193 196.529 47.264 193.909 47.264C190.562 47.264 187.619 46.5599 185.073 45.1517C182.527 43.7436 180.559 41.7795 179.172 39.2643C177.785 36.7491 177.09 33.9003 177.09 30.7227C177.09 27.5822 177.763 24.7566 179.115 22.2413C180.462 19.7261 182.334 17.7621 184.732 16.3539C187.124 14.9458 189.823 14.2417 192.828 14.2417C195.794 14.2417 198.445 14.9365 200.78 16.3261C203.116 17.7158 204.94 19.6659 206.253 22.1811C207.565 24.6964 208.221 27.6053 208.221 30.9034C208.221 31.2925 208.199 31.7974 208.16 32.4273C208.129 32.8211 207.818 33.1314 207.442 33.1314ZM187.037 22.4174C185.458 23.8487 184.5 25.7478 184.158 28.1241H201.432C201.126 25.7895 200.199 23.8996 198.637 22.4498C197.08 20.9999 195.138 20.2773 192.819 20.2773C190.545 20.2727 188.616 20.986 187.037 22.4174Z" fill="#5287FF"/>
<path d="M214.012 14.5991H220.158C220.429 14.5991 220.647 14.8307 220.647 15.1179V27.6987H235.983V15.1179C235.983 14.8307 236.202 14.5991 236.473 14.5991H242.619C242.89 14.5991 243.109 14.8307 243.109 15.1179V46.3197C243.109 46.6069 242.89 46.8385 242.619 46.8385H236.473C236.202 46.8385 235.983 46.6069 235.983 46.3197V34.1003H220.647V46.3197C220.647 46.6069 220.429 46.8385 220.158 46.8385H214.012C213.741 46.8385 213.522 46.6069 213.522 46.3197V15.1179C213.522 14.8307 213.741 14.5991 214.012 14.5991Z" fill="#5287FF"/>
<path d="M255.426 45.1483C252.954 43.7401 251.025 41.7761 249.639 39.2609C248.252 36.7457 247.557 33.8969 247.557 30.7193C247.557 27.5417 248.248 24.7022 249.639 22.2055C251.025 19.7088 252.954 17.7587 255.426 16.3505C257.897 14.9424 260.67 14.2383 263.75 14.2383C266.864 14.2383 269.659 14.9424 272.131 16.3505C274.602 17.7587 276.531 19.7134 277.918 22.2055C279.305 24.7022 280 27.537 280 30.7193C280 33.9016 279.305 36.7457 277.918 39.2609C276.531 41.7761 274.602 43.7401 272.131 45.1483C269.659 46.5565 266.864 47.2605 263.75 47.2605C260.67 47.2605 257.897 46.5565 255.426 45.1483ZM270.25 38.0241C271.96 36.1713 272.818 33.7394 272.818 30.7193C272.818 27.6992 271.96 25.2673 270.25 23.4145C268.54 21.5616 266.374 20.6352 263.75 20.6352C261.125 20.6352 258.969 21.5616 257.28 23.4145C255.588 25.2673 254.744 27.6992 254.744 30.7193C254.744 33.7394 255.588 36.1759 257.28 38.0241C258.973 39.877 261.13 40.8034 263.75 40.8034C266.374 40.7988 268.54 39.877 270.25 38.0241Z" fill="#5287FF"/>
</svg>
