<svg width="1207" height="239" viewBox="0 0 1207 239" fill="none" xmlns="http://www.w3.org/2000/svg">
<path d="M33.9065 194.533C23.2577 188.466 14.946 180.003 8.9714 169.166C2.99676 158.328 0 146.054 0 132.362C0 118.67 2.97791 106.435 8.9714 95.6777C14.946 84.9199 23.2577 76.5173 33.9065 70.4498C44.5553 64.3824 56.5047 61.3486 69.7733 61.3486C83.1926 61.3486 95.236 64.3824 105.885 70.4498C116.534 76.5173 124.845 84.9399 130.82 95.6777C136.795 106.435 139.791 118.65 139.791 132.362C139.791 146.073 136.795 158.328 130.82 169.166C124.845 180.003 116.534 188.466 105.885 194.533C95.236 200.601 83.1926 203.634 69.7733 203.634C56.5235 203.634 44.5553 200.601 33.9065 194.533ZM97.7808 163.837C105.15 155.853 108.844 145.375 108.844 132.362C108.844 119.349 105.169 108.87 97.7808 100.887C90.4114 92.9034 81.0817 88.9116 69.7733 88.9116C58.4648 88.9116 49.1729 92.9034 41.8978 100.887C34.6039 108.87 30.9662 119.349 30.9662 132.362C30.9662 145.375 34.6039 155.873 41.8978 163.837C49.1918 171.82 58.4836 175.812 69.7733 175.812C81.0817 175.792 90.4114 171.82 97.7808 163.837Z" fill="white"/>
<path d="M297.754 178.624V224.249C297.754 225.167 297.057 225.926 296.171 225.926H272.046C270.369 225.926 269.012 224.489 269.012 222.713V201.836H167.801V224.249C167.801 225.187 167.085 225.946 166.199 225.946H141.17C140.133 225.946 139.285 225.048 139.285 223.95V177.207C139.285 175.57 140.529 174.233 142.093 174.233H145.429C153.778 173.893 159.47 168.205 162.505 157.188C165.539 146.171 167.537 128.487 168.517 108.349L169.987 69.7687C170.119 65.9167 173.116 65.0186 176.754 65.0186H271.575C275.307 65.0186 278.341 68.2319 278.341 72.1837V172.496C278.341 173.454 279.076 174.233 279.981 174.233H293.589C295.907 174.233 297.754 176.209 297.754 178.624ZM192.868 151.859C191.153 161.379 188.137 168.584 183.784 173.434C183.52 173.734 183.708 174.233 184.104 174.233H247.658V94.2581C247.658 93.34 246.96 92.5816 246.075 92.5816H198.805C197.957 92.5816 197.58 92.4419 197.542 93.34L196.543 110.684C195.884 126.671 194.659 141.8 192.868 151.859Z" fill="white"/>
<path d="M337.067 194.533C326.418 188.466 318.106 180.003 312.132 169.166C306.157 158.328 303.16 146.054 303.16 132.362C303.16 118.67 306.138 106.435 312.132 95.6777C318.106 84.9199 326.418 76.5173 337.067 70.4498C347.715 64.3824 359.665 61.3486 372.933 61.3486C386.353 61.3486 398.396 64.3824 409.045 70.4498C419.694 76.5173 428.005 84.9399 433.98 95.6777C439.955 106.435 442.951 118.65 442.951 132.362C442.951 146.073 439.955 158.328 433.98 169.166C428.005 180.003 419.694 188.466 409.045 194.533C398.396 200.601 386.353 203.634 372.933 203.634C359.665 203.634 347.697 200.601 337.067 194.533ZM400.94 163.837C408.31 155.853 412.004 145.375 412.004 132.362C412.004 119.349 408.329 108.87 400.94 100.887C393.571 92.9034 384.242 88.9116 372.933 88.9116C361.625 88.9116 352.333 92.9034 345.058 100.887C337.764 108.87 334.126 119.349 334.126 132.362C334.126 145.375 337.764 155.873 345.058 163.837C352.333 171.82 361.644 175.812 372.933 175.812C384.223 175.792 393.571 171.82 400.94 163.837Z" fill="white"/>
<path d="M566.273 78.112C575.772 83.7403 583.179 91.6041 588.513 101.663C593.828 111.722 596.504 123.259 596.504 136.272C596.504 149.624 593.564 161.46 587.665 171.778C581.766 182.097 573.492 190.12 562.862 195.849C552.213 201.577 540.094 204.431 526.505 204.431C503.738 204.431 486.134 196.447 473.695 180.5C461.255 164.553 455.017 141.561 455.017 111.563C455.017 83.6406 460.671 61.5263 471.96 45.22C483.269 28.9137 500.533 18.1559 523.791 12.9667L580.71 0.0932946C582.897 -0.405674 585.008 1.15111 585.366 3.46633L588.532 24.3232C588.871 26.5586 587.496 28.6742 585.403 29.1333L533.874 40.2902C517.986 43.763 506.112 49.6508 498.253 57.9736C490.808 65.8573 486.303 76.7548 484.739 90.706C484.664 91.4245 485.493 91.8635 485.964 91.3047C491.562 84.6984 498.196 79.5291 505.867 75.7968C514.217 71.7252 523.395 69.6894 533.384 69.6894C545.786 69.6495 556.774 72.4836 566.273 78.112ZM554.607 166.569C561.561 158.845 565.048 149.005 565.048 137.05C565.048 125.075 561.561 115.455 554.607 108.17C547.652 100.885 538.511 97.2524 527.221 97.2524C515.762 97.2524 506.508 100.905 499.459 108.17C492.41 115.455 488.905 125.075 488.905 137.05C488.905 149.185 492.467 159.085 499.591 166.709C506.715 174.333 515.932 178.165 527.221 178.165C538.511 178.165 547.633 174.293 554.607 166.569Z" fill="white"/>
<path d="M722.385 70.1887C732.449 76.0765 740.365 84.4193 746.095 95.1571C751.824 105.915 754.689 118.309 754.689 132.36C754.689 146.411 751.824 158.845 746.095 169.683C740.365 180.521 732.468 188.903 722.385 194.791C712.32 200.699 700.899 203.633 688.12 203.633C670.441 203.633 656.438 197.386 646.109 184.892V236.545C646.109 237.902 645.073 239 643.791 239H617.706C616.424 239 615.388 237.902 615.388 236.545V64.3807C615.388 63.5425 616.029 62.8638 616.82 62.8638H640.606C642.83 62.8638 644.62 64.7599 644.62 67.1151V81.0662C649.69 74.4798 655.966 69.5301 663.411 66.2369C670.856 62.9437 679.092 61.2871 688.101 61.2871C700.88 61.327 712.32 64.2809 722.385 70.1887ZM712.565 163.835C719.859 155.852 723.497 145.373 723.497 132.36C723.497 119.347 719.84 108.869 712.565 100.885C705.271 92.9017 695.979 88.91 684.69 88.91C677.32 88.91 670.686 90.6863 664.787 94.239C658.888 97.7916 654.232 102.861 650.783 109.448C647.353 116.034 645.619 123.678 645.619 132.34C645.619 141.022 647.334 148.646 650.783 155.233C654.213 161.819 658.888 166.909 664.787 170.461C670.686 174.014 677.32 175.79 684.69 175.79C695.979 175.79 705.271 171.819 712.565 163.835Z" fill="white"/>
<path d="M893.822 142.757H793.743C795.552 152.996 800.245 161.1 807.859 167.087C815.474 173.075 824.935 176.069 836.224 176.069C849.399 176.069 860.462 171.857 869.396 163.435C870.791 162.117 872.939 162.297 874.164 163.794L886.547 178.863C887.565 180.1 887.546 181.976 886.491 183.194C880.912 189.581 874.051 194.49 865.966 197.923C856.957 201.735 846.798 203.652 835.508 203.652C821.09 203.652 808.406 200.618 797.437 194.55C786.467 188.483 777.986 180.02 772.011 169.183C766.037 158.345 763.04 146.071 763.04 132.379C763.04 118.847 765.942 106.672 771.766 95.8345C777.571 84.9969 785.638 76.5344 795.966 70.4669C806.276 64.3995 817.905 61.3657 830.853 61.3657C843.632 61.3657 855.053 64.3595 865.118 70.3472C875.182 76.3348 883.042 84.7374 888.696 95.575C894.35 106.413 897.177 118.947 897.177 133.157C897.177 134.834 897.083 137.009 896.913 139.724C896.782 141.42 895.443 142.757 893.822 142.757ZM805.899 96.5929C799.095 102.76 794.967 110.943 793.497 121.182H867.926C866.607 111.123 862.611 102.98 855.883 96.7326C849.173 90.4855 840.804 87.3719 830.815 87.3719C821.015 87.352 812.703 90.4257 805.899 96.5929Z" fill="white"/>
<path d="M922.128 62.9048H948.609C949.778 62.9048 950.72 63.9027 950.72 65.1402V119.348H1016.8V65.1402C1016.8 63.9027 1017.74 62.9048 1018.91 62.9048H1045.39C1046.56 62.9048 1047.5 63.9027 1047.5 65.1402V199.582C1047.5 200.82 1046.56 201.818 1045.39 201.818H1018.91C1017.74 201.818 1016.8 200.82 1016.8 199.582V146.931H950.72V199.582C950.72 200.82 949.778 201.818 948.609 201.818H922.128C920.96 201.818 920.018 200.82 920.018 199.582V65.1402C920.018 63.9027 920.96 62.9048 922.128 62.9048Z" fill="white"/>
<path d="M1100.58 194.533C1089.93 188.466 1081.61 180.003 1075.64 169.166C1069.67 158.328 1066.67 146.054 1066.67 132.362C1066.67 118.67 1069.65 106.435 1075.64 95.6777C1081.61 84.9199 1089.93 76.5173 1100.58 70.4498C1111.22 64.3824 1123.17 61.3486 1136.44 61.3486C1149.86 61.3486 1161.91 64.3824 1172.55 70.4498C1183.2 76.5173 1191.51 84.9399 1197.49 95.6777C1203.46 106.435 1206.46 118.65 1206.46 132.362C1206.46 146.073 1203.46 158.328 1197.49 169.166C1191.51 180.003 1183.2 188.466 1172.55 194.533C1161.91 200.601 1149.86 203.634 1136.44 203.634C1123.17 203.634 1111.22 200.601 1100.58 194.533ZM1164.45 163.837C1171.82 155.853 1175.51 145.375 1175.51 132.362C1175.51 119.349 1171.82 108.87 1164.45 100.887C1157.08 92.9034 1147.75 88.9116 1136.44 88.9116C1125.13 88.9116 1115.84 92.9034 1108.57 100.887C1101.27 108.87 1097.64 119.349 1097.64 132.362C1097.64 145.375 1101.27 155.873 1108.57 163.837C1115.86 171.82 1125.15 175.812 1136.44 175.812C1147.75 175.792 1157.08 171.82 1164.45 163.837Z" fill="white"/>
</svg>
