<svg width="83" height="83" viewBox="0 0 83 83" fill="none" xmlns="http://www.w3.org/2000/svg">
<circle cx="41.5" cy="41.5" r="41.5" transform="rotate(-180 41.5 41.5)" fill="#5287FF"/>
<path d="M19.4523 40.2426C19.4523 40.2426 37.1434 32.5594 43.2789 29.854C45.631 28.7719 53.6072 25.309 53.6072 25.309C53.6072 25.309 57.2887 23.794 56.9818 27.4733C56.8795 28.9883 56.0615 34.2908 55.2434 40.0262C54.0163 48.1423 52.6869 57.0158 52.6869 57.0158C52.6869 57.0158 52.4824 59.5048 50.744 59.9377C49.0056 60.3705 46.1422 58.4228 45.631 57.9898C45.2218 57.6652 37.9614 52.7955 35.3027 50.4148C34.5868 49.7655 33.7688 48.467 35.4048 46.9519C39.0863 43.3808 43.4834 38.9441 46.1422 36.1305C47.3694 34.8319 48.5964 31.8019 43.4834 35.4811C36.223 40.7837 29.0648 45.7616 29.0648 45.7616C29.0648 45.7616 27.4286 46.8437 24.3608 45.8697C21.2929 44.8959 17.7138 43.5973 17.7138 43.5973C17.7138 43.5973 15.2597 41.9741 19.4523 40.2426Z" fill="white"/>
</svg>
