<svg width="83" height="83" viewBox="0 0 83 83" fill="none" xmlns="http://www.w3.org/2000/svg">
<circle cx="41.5" cy="41.5" r="41.5" transform="rotate(-180 41.5 41.5)" fill="#FF7777"/>
<path fill-rule="evenodd" clip-rule="evenodd" d="M57.6671 55.2738C59.8671 54.9593 61.6481 53.2824 62.0671 51.0815C62.4862 48.6709 62.9053 45.1074 63.01 40.7055C63.01 36.3036 62.4862 32.7401 62.0671 30.3296C61.6481 28.1286 59.8671 26.4517 57.6671 26.1373C54.1051 25.6132 48.4479 24.9844 41.9526 24.9844C35.4573 24.9844 29.6953 25.6132 26.2382 26.1373C24.0381 26.4517 22.2572 28.1286 21.8381 30.3296C21.4191 32.7401 21 36.3036 21 40.7055C21 45.1074 21.4191 48.6709 21.8381 51.0815C22.2572 53.2824 24.0381 54.9593 26.2382 55.2738C29.8001 55.7978 35.5621 56.4266 41.9526 56.4266C48.4479 56.4266 54.2099 55.7978 57.6671 55.2738ZM50.3343 40.7058L37.7627 33.3692V48.0424L50.3343 40.7058Z" fill="white"/>
</svg>
