<svg width="372" height="237" viewBox="0 0 372 237" fill="none" xmlns="http://www.w3.org/2000/svg">
<path fill-rule="evenodd" clip-rule="evenodd" d="M68.9538 34.4571C68.9538 50.8082 57.5674 64.9212 41.44 68.1686C22.3623 72.0509 4.77812 59.7301 0.971528 41.9237C-1.53039 30.1638 1.38173 19.6735 9.55812 10.8631C14.9331 5.03882 21.6526 1.60419 29.4554 0.447641C35.6158 -0.485897 41.6264 0.260445 47.4132 2.53772C47.8234 2.72492 48.2344 2.9113 48.4208 3.35976C48.608 3.84484 48.5331 4.32992 48.1596 4.70269C47.7485 5.07708 47.3009 5.18858 46.7784 4.96476C45.0611 4.25504 43.3063 3.65764 41.4767 3.28488C29.7549 1.0076 19.6748 4.03122 11.3495 12.5796C6.45881 17.6591 3.62238 23.7804 2.87523 30.7245C1.83019 40.4311 4.59255 48.9802 11.2006 56.1856C16.1653 61.5614 22.3257 64.8837 29.5677 65.967C39.7968 67.4597 48.8318 64.6973 56.4474 57.6409C61.8973 52.5646 65.1081 46.2927 66.154 38.9376C67.0126 33.0018 66.1914 27.2907 63.8392 21.7644C63.7644 21.6154 63.6895 21.5039 63.6521 21.3542C63.3916 20.6453 63.6521 19.973 64.2869 19.7117C64.9217 19.413 65.6314 19.6743 65.9301 20.3466C66.639 21.9141 67.2365 23.5199 67.6841 25.1998C68.5428 28.1868 68.9538 31.3219 68.9538 34.4579" fill="white"/>
<path fill-rule="evenodd" clip-rule="evenodd" d="M57.567 19.0011C53.0873 19.0011 49.6152 15.4924 49.6152 10.9753C49.6152 6.5697 53.1988 3.02356 57.567 3.02356C62.0092 3.02356 65.5936 6.60714 65.5562 11.0494C65.5936 15.455 62.0467 19.0011 57.567 19.0011Z" fill="white"/>
<path d="M27.29 34.4196V26.9155C27.29 26.5053 27.4024 26.3929 27.8126 26.3929C30.1273 26.4304 32.442 26.3563 34.7193 26.4304C36.6979 26.4678 38.3411 27.1401 39.2364 29.0438C39.7223 30.0148 39.7964 31.0598 39.4236 32.1049C39.2738 32.5159 39.3487 32.6282 39.7589 32.7397C41.626 33.2248 42.8949 34.3455 43.3433 36.2867C44.0148 39.3852 41.7749 42.4088 38.6016 42.4837C34.9431 42.596 31.3221 42.5211 27.6628 42.5211C27.2526 42.5211 27.29 42.2973 27.3275 42.036C27.29 39.4967 27.29 36.9581 27.29 34.4196ZM34.9431 38.638H37.9675C38.6764 38.638 39.1249 38.1904 39.1623 37.5555C39.199 36.8466 38.8262 36.3241 38.1539 36.2118C37.9301 36.1743 37.7437 36.1743 37.5191 36.1743H33.5619C32.9271 36.1743 32.0318 35.8756 31.6957 36.2867C31.3595 36.6969 31.6208 37.5563 31.5833 38.1904C31.5459 38.5639 31.6957 38.638 32.031 38.638H34.9431ZM33.0394 32.441H34.3091C34.9439 32.4036 35.429 31.9185 35.3916 31.3211C35.3541 30.6862 34.9439 30.3135 34.2716 30.3135C33.5619 30.3135 32.8905 30.3509 32.1807 30.3135C31.6957 30.276 31.5085 30.3875 31.5833 30.9109C31.6208 31.396 31.4344 32.0682 31.6957 32.3661C31.9561 32.6648 32.6284 32.3661 33.0394 32.441Z" fill="white"/>
<path fill-rule="evenodd" clip-rule="evenodd" d="M55.5514 42.5212H49.5041C46.8158 42.5212 44.7998 40.5052 44.7998 37.8169V26.9904C44.7998 26.5802 44.8739 26.4305 45.3223 26.4305C46.3673 26.4678 47.4133 26.4678 48.4583 26.4305C48.9433 26.4305 49.0931 26.5054 49.0931 27.0279C49.0557 30.5374 49.0931 34.0469 49.0931 37.5556C49.0931 38.4143 49.242 38.6015 50.1007 38.6015H55.3275C55.8126 38.6015 55.9624 38.4891 55.9624 38.0041C55.9249 34.3456 55.9624 30.7238 55.9249 27.0653C55.9249 26.5054 56.0739 26.393 56.5964 26.4305C57.6423 26.4679 58.6499 26.4679 59.6949 26.4305C60.1426 26.4305 60.2923 26.5054 60.2923 26.9904C60.2549 30.6489 60.2923 34.3074 60.2549 38.0041C60.2549 38.5266 60.4046 38.6755 60.8897 38.6389C61.3007 38.6015 61.7117 38.6389 62.1219 38.6389C62.4206 38.6015 62.4955 38.7504 62.4955 39.0491C62.4955 40.0941 62.4581 41.1026 62.4955 42.1476C62.4955 42.5212 62.3832 42.5953 62.0479 42.5953C59.8447 42.4837 57.6797 42.5212 55.5514 42.5212Z" fill="white"/>
<path d="M6.64551 42.5212C7.69055 40.0567 8.66153 37.7053 9.66913 35.3532C10.4912 33.4121 11.3116 31.4335 12.1328 29.4923C12.9174 27.5878 14.4849 26.4679 16.3895 26.4679C18.3306 26.4679 19.8982 27.5504 20.6819 29.4549C22.4741 33.7848 24.2663 38.153 26.0952 42.5586H22.9226C21.6529 42.5586 21.6529 42.5586 21.1304 41.3638C20.6453 40.2065 20.6453 40.2064 19.4131 40.2064H12.4689C12.1328 40.2064 11.9464 40.3188 11.8341 40.6541C11.6103 41.2889 11.4988 42.111 11.0129 42.4837C10.5278 42.8573 9.66994 42.596 8.96023 42.596C8.28795 42.5212 7.50335 42.5212 6.64551 42.5212ZM13.6263 36.4357H18.6659C18.8906 36.4357 19.1136 36.4731 18.9646 36.0995C18.2557 34.2707 17.5834 32.4785 16.8745 30.6489C16.7997 30.4251 16.6507 30.2761 16.4269 30.2761C16.2023 30.2761 16.0908 30.4251 16.0159 30.6122C15.1838 32.5386 14.3871 34.4801 13.6263 36.4357Z" fill="white"/>
<path fill-rule="evenodd" clip-rule="evenodd" d="M102.888 28.0362C102.365 28.6336 101.842 29.2302 101.358 29.8651C101.058 30.3127 100.648 30.1638 100.274 30.1638C100.087 30.1638 100.125 29.9766 100.125 29.8651V26.804C100.125 26.3189 100.461 26.4679 100.685 26.4679C100.909 26.4679 101.208 26.393 101.17 26.804C101.134 27.4037 101.172 28.0056 101.282 28.5962C101.768 27.9988 102.328 27.4014 102.775 26.7666C103.112 26.3189 103.523 26.4304 103.933 26.4304C104.12 26.4304 104.083 26.5802 104.083 26.6917V29.9025C104.083 30.3501 103.746 30.1638 103.559 30.2012C103.335 30.2386 103.037 30.2761 103.074 29.8651C103.112 29.2677 103.074 28.6703 103.074 28.1103C102.963 28.0362 102.925 28.0362 102.887 28.0362H102.888ZM82.6161 38.6755C83.0271 38.6755 83.4381 38.7129 83.8483 38.6755C84.2211 38.638 84.3708 38.7504 84.3708 39.1614C84.3708 39.5716 84.2211 39.6465 83.8483 39.609C83.2884 39.5716 82.7658 39.609 82.2051 39.609C82.0187 39.609 81.8697 39.609 81.8697 39.8703C81.8697 40.1315 82.0561 40.0575 82.2051 40.0941C82.691 40.0941 83.176 40.1315 83.6619 40.0941C84.1096 40.0567 84.0721 40.3187 84.1096 40.6166C84.147 41.0276 83.9598 41.0643 83.6619 41.0276C83.2768 40.9902 82.8889 40.9902 82.5038 41.0276C82.3174 41.0651 81.9438 40.8404 81.9064 41.2515C81.9064 41.6991 82.3174 41.5127 82.5412 41.5127C83.0271 41.5502 83.5496 41.5502 84.0347 41.5127C84.4457 41.4753 84.4457 41.7373 84.4457 42.036C84.4457 42.3714 84.4083 42.5211 83.9981 42.5211C83.2884 42.4837 82.6161 42.5211 81.9064 42.5211C81.1975 42.5211 80.8613 42.185 80.8613 41.4753V39.0865C80.8613 38.7504 80.9736 38.6755 81.2723 38.7129C81.72 38.6755 82.1676 38.6755 82.6161 38.6755ZM105.8 32.5534H107.031C107.367 32.5534 107.554 32.5908 107.554 33.001C107.554 33.4486 107.405 33.5235 107.031 33.4869C106.547 33.4496 106.06 33.4496 105.575 33.4869C105.389 33.4869 105.09 33.3371 105.128 33.7107C105.128 34.0835 105.426 33.8979 105.613 33.9345C106.035 33.9719 106.46 33.9719 106.882 33.9345C107.293 33.8971 107.293 34.1217 107.33 34.4196C107.33 34.7558 107.255 34.9055 106.882 34.8673C106.396 34.8306 105.911 34.8673 105.426 34.8673C105.24 34.8673 105.128 34.8673 105.128 35.0919C105.128 35.3157 105.24 35.3532 105.426 35.3532C106.061 35.3532 106.659 35.3906 107.293 35.3532C107.666 35.3532 107.704 35.5021 107.666 35.8008C107.629 36.0621 107.741 36.3608 107.293 36.3241C106.546 36.2867 105.837 36.3241 105.09 36.3241C104.455 36.3241 104.119 35.9497 104.119 35.3532V32.9261C104.119 32.6282 104.232 32.5534 104.494 32.5534H105.8ZM125.101 33.972C124.466 34.7183 123.906 35.3532 123.421 36.0254C123.122 36.4731 122.711 36.2859 122.301 36.3241C122.114 36.3241 122.151 36.1744 122.151 36.0621V32.8521C122.151 32.4044 122.45 32.5534 122.674 32.5534C122.898 32.5534 123.197 32.4785 123.197 32.8895C123.159 33.4869 123.197 34.0835 123.197 34.8673C123.832 34.1209 124.353 33.4869 124.877 32.8521C125.026 32.7023 125.137 32.5534 125.399 32.5159C126.108 32.4785 126.108 32.4785 126.108 33.1508C126.108 34.046 126.071 34.9796 126.108 35.8757C126.146 36.3608 125.848 36.2493 125.548 36.2867C125.212 36.3241 125.063 36.2493 125.101 35.839C125.138 35.3157 125.101 34.7566 125.101 33.972Z" fill="white"/>
<path d="M103.635 40.5793V39.0866C103.635 38.7879 103.747 38.6756 104.046 38.713C104.531 38.7504 105.054 38.713 105.54 38.7879C106.211 38.8628 106.51 39.2355 106.472 39.9078C106.472 40.1316 106.51 40.2065 106.696 40.2814C107.256 40.5052 107.443 40.9903 107.368 41.5511C107.294 42.0728 106.808 42.4838 106.211 42.5212C105.465 42.5587 104.718 42.5212 103.934 42.5212C103.673 42.5212 103.598 42.4089 103.598 42.1851C103.673 41.6251 103.635 41.1026 103.635 40.5801V40.5793ZM105.465 41.5877C105.763 41.4387 106.36 41.8115 106.36 41.2515C106.36 40.8039 105.801 40.9911 105.502 41.0277C105.241 41.0652 104.68 40.6916 104.718 41.289C104.681 41.8115 105.203 41.4013 105.465 41.5877ZM105.054 40.0942C105.241 40.0567 105.501 40.1691 105.501 39.8704C105.501 39.6091 105.241 39.6091 105.054 39.6091C104.867 39.6091 104.644 39.5717 104.681 39.8704C104.681 40.1691 104.905 40.0576 105.054 40.0942Z" fill="white"/>
<path fill-rule="evenodd" clip-rule="evenodd" d="M78.4347 42.4838H76.9794C76.382 42.4463 76.0833 42.1102 76.0459 41.5128C76.0459 40.729 76.0833 39.9452 76.0459 39.1981C76.0459 38.8253 76.1208 38.6755 76.531 38.6755C76.9046 38.6755 77.0909 38.7504 77.0543 39.1981C77.0169 39.8703 77.0543 40.5052 77.0543 41.1775C77.0543 41.4753 77.1284 41.5877 77.4271 41.5877C78.6968 41.6251 78.6968 41.6625 78.6968 40.3929C78.6968 40.0201 78.7342 39.6465 78.6968 39.2729C78.6219 38.7504 78.884 38.6755 79.3316 38.6755C79.7044 38.6755 79.7792 38.7879 79.7792 39.1614C79.7418 39.8329 79.7792 40.5044 79.7792 41.1775C79.7792 41.3264 79.7044 41.5502 80.0031 41.5502C80.3392 41.5502 80.2643 41.7374 80.2643 41.9238C80.3018 42.334 80.2269 42.5586 79.7418 42.4838C79.3316 42.4463 78.8831 42.4838 78.4355 42.4838" fill="white"/>
<path d="M76.0459 34.457V32.8895C76.0459 32.7023 76.0459 32.5533 76.3072 32.5533C76.8671 32.5533 77.4271 32.5908 77.987 32.5908C78.2857 32.5908 78.6593 32.7397 78.6968 33.001C78.8457 33.6733 79.2942 34.1209 79.6669 34.6434C80.1528 35.3157 79.5554 36.2492 78.6968 36.3241C77.9122 36.3982 77.1284 36.3241 76.3072 36.3607C76.0459 36.3607 76.0459 36.2492 76.0459 36.0254V34.457ZM77.8381 35.3906H78.3981C78.5853 35.3906 78.7708 35.3157 78.7708 35.0919C78.7708 34.8681 78.5844 34.8306 78.3981 34.8306H77.3156C77.0909 34.8306 77.0543 34.9421 77.0543 35.1293C77.0543 35.3165 77.1284 35.428 77.3148 35.3898H77.8381V35.3906ZM77.4271 33.9345C77.6143 33.9345 77.8747 33.972 77.8747 33.7107C77.9122 33.4494 77.6509 33.4494 77.4645 33.4494C77.2773 33.4494 77.0543 33.3746 77.0543 33.6733C77.0543 33.972 77.2781 33.9345 77.4271 33.9345Z" fill="white"/>
<path fill-rule="evenodd" clip-rule="evenodd" d="M112.296 30.1638H110.84C110.28 30.1638 109.982 29.8277 109.944 29.3052V26.7292C109.944 26.319 110.168 26.3931 110.392 26.4305C110.617 26.468 110.989 26.2441 110.989 26.7292V28.8201C110.989 29.1562 111.102 29.2303 111.437 29.2303C112.669 29.2303 112.669 29.2677 112.669 27.9989C112.669 27.6627 112.707 27.3266 112.669 27.0279C112.595 26.5054 112.782 26.3564 113.304 26.3931C113.64 26.4305 113.79 26.5054 113.752 26.8407C113.715 27.4389 113.752 28.0363 113.752 28.6337C113.752 28.8942 113.603 29.1937 114.126 29.2303C114.387 29.2677 114.2 29.7162 114.238 29.94C114.238 30.2013 114.014 30.089 113.901 30.089C113.304 30.1638 112.782 30.1638 112.296 30.1638ZM117.672 27.8499C117.037 28.6337 116.515 29.2303 115.992 29.8651C115.656 30.2762 115.245 30.1264 114.872 30.1264C114.685 30.1264 114.76 29.9026 114.76 29.7911V26.7666C114.76 26.319 115.021 26.3931 115.283 26.3931C115.544 26.3931 115.843 26.319 115.805 26.7675C115.769 27.364 115.805 27.9614 115.805 28.7078C116.403 27.9989 116.963 27.4015 117.411 26.7666C117.747 26.319 118.12 26.3931 118.531 26.3931C118.755 26.3931 118.718 26.5428 118.718 26.6918V29.8277C118.718 30.2387 118.456 30.1638 118.27 30.1264C118.046 30.089 117.672 30.3136 117.672 29.8277V27.8499Z" fill="white"/>
<path d="M119.576 30.1263C119.65 29.9399 119.725 29.8276 119.799 29.7161C120.061 29.3799 120.098 29.1561 119.725 28.7451C118.978 27.9239 119.576 26.5427 120.695 26.4304C121.443 26.3563 122.189 26.4304 122.973 26.3929C123.234 26.3929 123.234 26.5053 123.234 26.7291V29.8276C123.234 30.202 123.048 30.2386 122.824 30.1637C122.6 30.1263 122.189 30.3875 122.189 29.8276C122.189 29.6786 122.301 29.3799 122.002 29.3799C121.666 29.3799 121.255 29.1561 120.994 29.5671C120.547 30.202 120.547 30.202 119.576 30.1263ZM121.443 27.3639H121.032C120.658 27.3639 120.434 27.5511 120.434 27.9239C120.434 28.26 120.658 28.4464 120.994 28.4464H121.853C122.114 28.4464 122.152 28.3715 122.189 28.1103C122.226 27.3265 122.264 27.3265 121.443 27.3639Z" fill="white"/>
<path fill-rule="evenodd" clip-rule="evenodd" d="M85.2675 40.5792C85.2675 40.0941 85.305 39.5716 85.2675 39.0865C85.2301 38.6389 85.4913 38.6755 85.7526 38.6755C86.0139 38.6755 86.2751 38.6014 86.2751 39.0491C86.3126 40.0567 86.3126 40.0567 87.2835 40.0567C88.0299 40.0567 88.0299 40.0567 88.0673 39.3103C88.0673 38.7129 88.3278 38.5266 88.926 38.6755C89.1498 38.7504 89.1132 38.9001 89.1132 39.0491V42.1101C89.1132 42.6327 88.7762 42.4463 88.515 42.4837C88.2163 42.5212 88.0673 42.4837 88.0673 42.1101C88.0673 40.9902 88.0299 41.0277 86.91 40.9902C86.3874 40.9528 86.2002 41.14 86.2751 41.6625C86.3126 41.8114 86.2751 41.9612 86.2751 42.1101C86.3126 42.5578 86.0147 42.4837 85.7526 42.4837C85.4913 42.4837 85.1926 42.5212 85.2675 42.1101V40.5792ZM89.2996 34.4196C89.2996 34.9422 89.2621 35.4655 89.2996 35.988C89.3362 36.4731 89.0009 36.3242 88.7388 36.3242C88.515 36.3242 88.2537 36.3982 88.2537 35.988C88.2911 35.3157 88.2537 34.6435 88.2537 33.9346C88.2537 33.7107 88.2911 33.412 87.955 33.4869C87.6189 33.561 87.1338 33.1882 87.0223 33.8222C86.91 34.3456 86.8351 34.8307 86.7236 35.3532C86.6113 35.9506 86.2377 36.2485 85.6411 36.2867C85.0429 36.3242 84.8565 36.0995 85.0063 35.5396C85.0429 35.4281 85.0803 35.3532 85.1926 35.3906C85.7152 35.5021 85.7526 35.0919 85.79 34.7558C85.8649 34.2707 85.9772 33.8222 86.0505 33.3372C86.1262 32.8521 86.4249 32.5534 86.91 32.5534C87.5822 32.5159 88.2537 32.5534 88.9634 32.5534C89.2239 32.5534 89.2996 32.7023 89.2621 32.9261C89.2996 33.412 89.2996 33.8971 89.2996 34.4196Z" fill="white"/>
<path d="M94.4891 28.2974C94.4891 29.4173 93.5564 30.2752 92.3616 30.2752C91.2042 30.2752 90.2707 29.3799 90.2707 28.2974C90.2707 27.1775 91.1668 26.3188 92.399 26.3188C93.593 26.3188 94.4891 27.1775 94.4891 28.2966V28.2974ZM93.4441 28.26C93.4441 27.6251 92.9964 27.1775 92.3616 27.1775C91.7268 27.1775 91.3157 27.6251 91.3157 28.26C91.3157 28.9323 91.7268 29.3799 92.3616 29.3799C93.0331 29.3799 93.4441 28.9323 93.4441 28.26ZM92.2118 32.4784C93.4066 32.4784 94.3402 33.3737 94.3027 34.4944C94.2653 35.5769 93.3318 36.4356 92.1744 36.4356C90.9804 36.4356 90.0469 35.5403 90.0469 34.4195C90.0469 33.2996 90.9804 32.4418 92.2118 32.4784ZM91.0919 34.4195C91.0919 35.0544 91.5396 35.5395 92.1744 35.502C92.8092 35.502 93.2569 35.0544 93.2569 34.3821C93.2569 33.7847 92.7718 33.2996 92.2118 33.2996C91.577 33.2996 91.0919 33.7847 91.0919 34.4195ZM108.414 34.308C108.451 33.7847 108.154 32.9635 108.526 32.6282C108.863 32.3295 109.684 32.5533 110.281 32.5533C110.542 32.5533 110.804 32.5533 111.027 32.5907C111.811 32.7397 112.222 33.2996 112.185 34.1583C112.147 34.868 111.662 35.428 110.915 35.502C110.643 35.5393 110.367 35.5393 110.095 35.502C109.684 35.4654 109.348 35.4654 109.422 36.0994C109.46 36.5471 109.011 36.2866 108.788 36.3241C108.6 36.3607 108.414 36.3607 108.414 36.062C108.451 35.8015 108.414 35.502 108.414 35.2408V34.308ZM110.169 34.5685H110.58C110.916 34.5685 111.14 34.4195 111.177 34.0834C111.215 33.7106 110.953 33.5234 110.617 33.4868C110.319 33.4494 110.02 33.4868 109.759 33.4868C109.534 33.4868 109.46 33.5983 109.46 33.7847C109.348 34.5693 109.348 34.5693 110.169 34.5693V34.5685Z" fill="white"/>
<path fill-rule="evenodd" clip-rule="evenodd" d="M95.0482 34.457C95.0482 33.9344 95.0856 33.4119 95.0482 32.8894C95.0107 32.4417 95.3469 32.5533 95.5715 32.5533C95.7953 32.5533 96.094 32.4035 96.094 32.852C96.094 33.1881 95.9443 33.6357 96.1681 33.8221C96.3927 33.9719 96.8404 33.8596 97.1765 33.897C97.7365 33.9719 97.9229 33.7847 97.8488 33.2247C97.8114 32.8894 97.699 32.4784 98.3339 32.5158C98.7815 32.5533 98.8938 32.6281 98.8564 33.0758C98.8191 34.0211 98.8191 34.9676 98.8564 35.913C98.8564 36.324 98.6692 36.3607 98.3713 36.324C98.1101 36.2866 97.8114 36.4355 97.8114 35.9496C97.8114 34.8305 97.7739 34.8672 96.654 34.8305C96.1315 34.7931 95.9443 34.9795 96.0566 35.4654C96.094 35.6143 96.0566 35.7258 96.0566 35.8756C96.1315 36.3232 95.8694 36.3607 95.5341 36.3607C95.1979 36.3607 94.9741 36.3607 95.0108 35.913C95.0856 35.4279 95.0482 34.9054 95.0482 34.457Z" fill="white"/>
<path d="M102.888 40.5792C102.888 41.6999 101.992 42.5586 100.76 42.5586C99.5654 42.5586 98.6701 41.7366 98.6326 40.6166C98.6326 39.4601 99.4913 38.6014 100.723 38.6014C101.918 38.6014 102.851 39.4601 102.888 40.5792H102.888ZM101.843 40.6166C101.843 39.9818 101.395 39.4967 100.76 39.4967C100.125 39.4967 99.6402 39.9826 99.6402 40.6166C99.6402 41.214 100.088 41.6991 100.686 41.6991C101.358 41.6991 101.806 41.2515 101.843 40.6166ZM84.5954 34.4196C84.5954 35.5396 83.6618 36.4357 82.4679 36.4357C81.2731 36.4357 80.3761 35.577 80.3761 34.4945C80.3761 33.3372 81.2356 32.4785 82.4679 32.4785C83.6993 32.4411 84.5954 33.3005 84.5954 34.4196ZM81.422 34.4196C81.422 35.0919 81.8697 35.5396 82.5045 35.5396C83.1393 35.5396 83.587 35.0545 83.587 34.4196C83.587 33.8222 83.1019 33.3372 82.5419 33.3372C81.9071 33.2997 81.422 33.7848 81.422 34.4196ZM76.0096 30.202C76.5313 29.0439 76.9423 27.9614 77.4648 26.9163C77.8384 26.1692 78.995 26.1692 79.3694 26.953C79.8544 27.9614 80.2646 29.0447 80.7505 30.1272C80.2272 30.0523 79.6681 30.3876 79.406 29.6787C79.3686 29.6038 79.1455 29.6038 79.0332 29.6038H77.7635C77.6146 29.6038 77.4274 29.5664 77.39 29.6787C77.1295 30.425 76.5313 30.0523 76.0088 30.2012L76.0096 30.202ZM78.9958 28.7077C78.8086 28.2226 78.6971 27.7376 78.3609 27.2891C78.2861 27.4389 78.2112 27.5504 78.1738 27.6252C77.6887 28.7826 77.6887 28.7826 78.9958 28.7077Z" fill="white"/>
<path fill-rule="evenodd" clip-rule="evenodd" d="M97.6241 30.1639H96.1681C95.6081 30.1639 95.2728 29.8277 95.2354 29.2686V26.7667C95.2354 26.3565 95.4592 26.3931 95.7204 26.4305C95.9817 26.4305 96.2804 26.319 96.2804 26.8041C96.243 27.4764 96.2804 28.1479 96.2804 28.8201C96.2804 29.1563 96.3927 29.2303 96.6914 29.2678C97.9611 29.3052 97.9611 29.3052 97.9611 28.0738C97.9611 27.7377 97.9977 27.4015 97.9611 27.1028C97.8854 26.5803 98.0726 26.3931 98.6325 26.4305C98.9312 26.468 99.0428 26.5429 99.0053 26.8416C98.9687 27.513 99.0053 28.1479 99.0053 28.8193C99.0053 29.044 98.9313 29.2303 99.304 29.3052C99.6784 29.3427 99.4538 29.7529 99.4912 29.9775C99.5286 30.2762 99.304 30.2013 99.1551 30.2013C98.6326 30.1639 98.1467 30.1639 97.6249 30.1639" fill="white"/>
<path d="M109.346 30.2021C108.786 30.0889 108.226 30.4251 108.003 29.7536C107.965 29.6413 107.815 29.6787 107.666 29.6787H106.21C106.099 29.6787 105.912 29.7162 105.912 29.7536C105.688 30.4999 105.128 30.0523 104.568 30.2387C105.09 29.0439 105.539 27.924 106.098 26.8789C106.509 26.1318 107.592 26.2441 107.965 27.0279C108.45 27.9988 108.86 29.0439 109.346 30.2021ZM106.994 27.2517C106.734 27.775 106.509 28.2227 106.397 28.7086H107.554C107.405 28.2227 107.255 27.775 106.994 27.2517ZM94.2265 40.5426V40.4677C94.3014 39.8703 94.0776 39.2355 94.3389 38.6381C95.3465 38.6755 96.3549 38.4143 97.3258 38.8627C97.885 39.1232 98.0722 39.6839 98.0339 40.2813C97.9973 40.9162 97.6237 41.3638 96.9897 41.551C96.5421 41.7 96.0936 41.6625 95.6452 41.6251C95.3465 41.6251 95.1601 41.6625 95.2349 42.0361C95.309 42.5961 94.8988 42.4089 94.6375 42.4463C94.3014 42.4837 94.1899 42.3714 94.2265 42.0361C94.264 41.5502 94.2265 41.0651 94.2265 40.5426ZM95.9813 40.7298H96.3923C96.7276 40.7298 97.0271 40.58 96.9897 40.2065C96.9897 39.8329 96.7276 39.6465 96.3923 39.6465H95.5703C95.3839 39.6465 95.2724 39.6839 95.2349 39.9452C95.1975 40.6915 95.1975 40.729 95.9813 40.729" fill="white"/>
<path fill-rule="evenodd" clip-rule="evenodd" d="M121.48 32.5907C121.406 32.7022 121.368 32.7771 121.293 32.8512C120.957 33.3371 120.398 33.8221 120.398 34.308C120.398 34.7931 120.957 35.2782 121.256 35.7641C121.331 35.913 121.443 36.062 121.517 36.2117C120.622 36.473 120.397 36.3989 119.95 35.6518C119.688 35.2782 119.613 34.6808 118.904 34.7931C118.643 34.8306 118.53 34.9054 118.568 35.1667V35.6143C118.568 36.3607 118.531 36.3981 117.785 36.3241C117.597 36.2866 117.522 36.2492 117.522 36.0254V32.8145C117.522 32.3295 117.897 32.5158 118.12 32.5158C118.345 32.4784 118.606 32.441 118.568 32.852C118.568 33.0009 118.531 33.1124 118.568 33.2622C118.606 33.4494 118.381 33.7847 118.755 33.8221C119.053 33.8596 119.427 33.9719 119.613 33.5617C119.651 33.4494 119.763 33.3745 119.801 33.2622C120.136 32.5533 120.696 32.4035 121.48 32.5907ZM126.707 36.2866C127.043 35.7641 127.341 35.2408 127.715 34.7565C127.939 34.457 127.901 34.2332 127.677 33.9345C127.341 33.5234 127.08 33.0758 126.744 32.5907C127.639 32.2546 128.088 32.7397 128.461 33.4119C128.797 34.0468 128.835 34.0093 129.245 33.4119C129.291 33.3693 129.329 33.3185 129.357 33.2622C129.656 32.5158 130.216 32.4035 130.962 32.5907C130.702 32.9635 130.477 33.3745 130.179 33.7106C129.842 34.1208 129.768 34.457 130.141 34.9054C130.477 35.3156 130.701 35.7641 131 36.2117C130.03 36.4356 129.917 36.3989 129.395 35.5395C128.835 34.6808 128.797 34.6808 128.349 35.5395C128.014 36.2492 127.49 36.473 126.706 36.2866H126.707ZM114.946 32.4784C115.619 32.4784 116.216 32.6656 116.627 33.2248C116.701 33.3371 116.963 33.4868 116.701 33.6358C116.477 33.7481 116.291 34.0468 115.955 33.897C115.88 33.8596 115.843 33.7481 115.768 33.7098C115.283 33.2996 114.425 33.3371 114.05 33.7481C113.715 34.1208 113.715 34.7931 114.05 35.2033C114.461 35.651 115.209 35.6892 115.731 35.2782C115.88 35.1667 115.918 34.9054 116.254 35.0178C116.851 35.2782 116.926 35.4654 116.441 35.913C115.731 36.5479 114.91 36.5853 114.051 36.3241C113.267 36.062 112.856 35.4654 112.782 34.6808C112.707 33.897 113.005 33.2622 113.677 32.852C114.035 32.5673 114.491 32.4333 114.946 32.4784ZM87.6191 26.3188C88.4412 26.3188 89.0378 26.5052 89.4862 27.0277C89.5977 27.1401 89.8964 27.3265 89.5611 27.4754C89.3365 27.5877 89.1501 28.0362 88.7765 27.6626L88.6276 27.5128C88.1425 27.1026 87.3204 27.1401 86.9477 27.5877C86.6115 27.9987 86.6115 28.6336 86.9477 29.0063C87.3579 29.454 88.1425 29.4922 88.6276 29.0812C88.7765 28.9689 88.8148 28.7076 89.1126 28.8574C89.7475 29.1561 89.7849 29.2676 89.2624 29.7527C88.5152 30.4624 87.0592 30.4624 86.2754 29.7909C85.5291 29.1186 85.3801 27.9239 86.015 27.1026C86.3877 26.5801 87.0226 26.3188 87.6191 26.3188ZM83.028 26.3188C83.8492 26.3188 84.4466 26.5052 84.8942 27.0652C85.0065 27.1775 85.1929 27.3639 84.9691 27.4762C84.7453 27.5877 84.5215 28.0362 84.1845 27.7C83.9981 27.5128 83.8117 27.3639 83.5497 27.289C82.9905 27.1401 82.3931 27.3265 82.1693 27.7749C81.9447 28.2226 82.057 28.8574 82.4297 29.1561C82.8408 29.4922 83.5505 29.4548 83.9981 29.0812C84.1479 28.9323 84.2594 28.7076 84.5581 28.894C85.118 29.1935 85.1555 29.305 84.7078 29.7535C84.073 30.3509 82.8782 30.4998 82.057 30.0522C81.3106 29.6778 80.9371 28.8948 81.086 27.9238C81.1983 26.9529 82.057 26.3188 83.028 26.3188ZM101.47 32.5533H103.112C103.56 32.5158 103.411 32.852 103.449 33.0758C103.449 33.2996 103.486 33.5235 103.112 33.5235C101.993 33.5609 101.993 33.5983 101.993 34.7557C101.993 35.1293 101.955 35.502 101.993 35.8756C102.03 36.2866 101.918 36.3981 101.47 36.3981C101.022 36.3981 100.91 36.2492 100.947 35.8382C100.984 35.2033 100.947 34.6067 100.947 33.9719C100.947 33.5983 100.835 33.4868 100.5 33.5243H100.051C99.7153 33.5243 99.454 33.5609 99.454 33.0758C99.454 32.6282 99.6412 32.5533 100.014 32.5907C100.499 32.5533 100.984 32.5533 101.47 32.5533ZM91.6886 38.6754H93.3311C93.7787 38.638 93.6672 38.9367 93.6672 39.1979C93.6672 39.4226 93.7046 39.6456 93.3311 39.6456C92.9583 39.6456 92.4724 39.46 92.2486 39.7587C92.0614 40.0191 92.2111 40.4676 92.2111 40.8412C92.2111 41.2888 92.1737 41.7365 92.2111 42.1849C92.2486 42.6326 91.9124 42.4836 91.6886 42.4836C91.4648 42.4836 91.1661 42.5959 91.1661 42.1475V40.1315C91.1661 39.7213 91.0538 39.5715 90.6436 39.6089C90.4938 39.6464 90.3449 39.6089 90.1959 39.6089C89.8215 39.6464 89.71 39.5341 89.71 39.1613C89.71 38.7869 89.7849 38.638 90.1951 38.6754C90.681 38.7128 91.1661 38.6754 91.6886 38.6754Z" fill="white"/>
<path fill-rule="evenodd" clip-rule="evenodd" d="M34.6068 69.2137C15.5308 69.2137 0 53.6837 0 34.6068C0 15.5291 15.5299 0 34.6068 0C39.124 0 43.4921 0.857846 47.6365 2.53773C48.3828 2.83643 48.719 3.65765 48.4203 4.4048C48.1216 5.15114 47.3004 5.48728 46.554 5.18858C42.7578 3.6551 38.7011 2.86913 34.6068 2.87386C17.0975 2.87386 2.83643 17.1349 2.83643 34.6435C2.83643 52.1528 17.0975 66.4139 34.6068 66.4139C52.1154 66.4139 66.3764 52.1528 66.3764 34.6435C66.3764 30.0889 65.4429 25.7215 63.5766 21.6146C63.2405 20.9057 63.5766 20.0471 64.2855 19.7101C64.9952 19.3748 65.8539 19.7101 66.19 20.4198C68.2061 24.9003 69.2137 29.6787 69.2137 34.6435C69.2137 53.6837 53.6837 69.2137 34.6068 69.2137Z" fill="white"/>
<path fill-rule="evenodd" clip-rule="evenodd" d="M65.5936 11.0121C65.5936 15.4178 62.0092 19.0013 57.6044 19.0013C53.1988 19.0013 49.6152 15.4178 49.6152 11.0121C49.6152 6.60734 53.1988 3.02295 57.6044 3.02295C58.6495 3.02295 59.6945 3.24758 60.6281 3.62035C62.5277 4.3961 64.0621 5.8639 64.9214 7.72726C65.3324 8.73487 65.5936 9.85479 65.5936 11.0121Z" fill="white"/>
<path d="M153.768 132.453H112.322C111.489 132.453 110.813 133.129 110.813 133.962V136.17C110.813 137.004 111.489 137.679 112.322 137.679H153.768C154.601 137.679 155.277 137.004 155.277 136.17V133.962C155.277 133.129 154.601 132.453 153.768 132.453Z" fill="white"/>
<path d="M109.304 94.5641H45.6271C44.7934 94.5641 44.1182 95.2396 44.1182 96.073V98.2812C44.1182 99.1146 44.7934 99.7901 45.6271 99.7901H109.304C110.137 99.7901 110.813 99.1146 110.813 98.2812V96.073C110.813 95.2396 110.137 94.5641 109.304 94.5641Z" fill="white"/>
<path fill-rule="evenodd" clip-rule="evenodd" d="M29.6339 103.494L17.5264 103.503L17.543 127.696L24.2365 127.691L29.6513 127.688C36.3382 127.683 41.7552 122.263 41.7507 115.583C41.7462 108.902 36.3208 103.49 29.6339 103.494ZM29.6392 110.18C32.6254 110.178 35.0563 112.603 35.0586 115.588C35.0601 118.571 32.633 120.999 29.6468 121.001L24.2312 121.005L24.2236 110.184L29.6392 110.18Z" fill="white"/>
<path fill-rule="evenodd" clip-rule="evenodd" d="M6.7092 121.018L6.7012 110.197L6.6966 103.511L6.6926 98.1008C6.69056 95.1175 9.11942 92.6883 12.1042 92.6863C15.0903 92.6843 17.5217 95.1095 17.5238 98.0928L17.5244 100.189L24.2182 100.183L24.2167 98.0881C24.2107 91.4078 18.7867 85.9953 12.1002 86C5.41362 86.0046 -0.00467468 91.4244 3.02648e-06 98.1048L0.00332432 103.516L0.00867753 110.202L0.0206733 127.709L14.226 127.699L14.222 121.013L6.7092 121.018Z" fill="white"/>
<path fill-rule="evenodd" clip-rule="evenodd" d="M60.4094 121.216C61.2228 120.724 61.8709 120.026 62.3522 119.121C62.8336 118.216 63.075 117.157 63.075 115.942C63.075 114.729 62.8336 113.67 62.3522 112.765C61.8709 111.859 61.2235 111.161 60.4094 110.668C59.5954 110.176 58.684 109.929 57.676 109.929C56.6665 109.929 55.7551 110.176 54.9411 110.668C54.1277 111.161 53.4797 111.86 52.9983 112.765C52.5169 113.669 52.277 114.729 52.2763 115.943C52.2763 117.156 52.5169 118.216 52.9983 119.12C53.4797 120.026 54.127 120.724 54.9418 121.216C55.7551 121.707 56.6665 121.954 57.676 121.954C58.684 121.954 59.5961 121.708 60.4094 121.216ZM50.6949 126.903C48.6307 125.826 47.0154 124.331 45.8459 122.419C44.6765 120.506 44.0918 118.347 44.0918 115.942C44.0926 113.536 44.6765 111.379 45.8459 109.465C47.0146 107.554 48.6314 106.06 50.6942 104.982C52.7584 103.906 55.0837 103.368 57.6753 103.368C60.2661 103.368 62.5929 103.906 64.6564 104.983C66.7198 106.06 68.3367 107.554 69.5053 109.466C70.6748 111.378 71.2587 113.537 71.2595 115.943C71.2595 118.346 70.674 120.506 69.5053 122.418C68.3359 124.331 66.7198 125.826 64.6564 126.903C62.5936 127.979 60.2661 128.517 57.676 128.517C55.0844 128.517 52.7584 127.979 50.6949 126.903Z" fill="white"/>
<path fill-rule="evenodd" clip-rule="evenodd" d="M86.321 122.298C87.1238 122.298 87.7477 122.125 88.1959 121.781C88.6425 121.437 88.8666 120.945 88.8659 120.305C88.8666 119.068 88.0178 118.449 86.321 118.449L82.1601 118.448V122.297L86.321 122.298ZM74.1816 103.916L95.0563 103.916L95.0555 110.033H82.1601V112.815L87.9032 112.815C90.8381 112.815 93.0901 113.439 94.6609 114.687C96.231 115.935 97.0164 117.74 97.0164 120.099C97.0164 122.55 96.1224 124.473 94.3335 125.871C92.5447 127.268 90.0572 127.967 86.8711 127.967H74.1824L74.1816 103.916Z" fill="white"/>
<path fill-rule="evenodd" clip-rule="evenodd" d="M113.35 115.065C113.9 114.573 114.175 113.88 114.175 112.987C114.175 112.093 113.9 111.402 113.35 110.908C112.799 110.415 111.974 110.169 110.874 110.169H107.916V115.805H110.874C111.974 115.804 112.799 115.559 113.35 115.065ZM117.201 105.016C118.852 105.749 120.124 106.802 121.018 108.177C121.913 109.551 122.36 111.153 122.36 112.987C122.359 114.819 121.913 116.422 121.018 117.796C120.124 119.172 118.852 120.224 117.201 120.958C115.551 121.69 113.613 122.056 111.389 122.056H107.916V127.967H99.7998L99.8006 103.916H111.389C113.613 103.916 115.551 104.283 117.201 105.016Z" fill="white"/>
<path fill-rule="evenodd" clip-rule="evenodd" d="M140.122 121.214C140.936 120.721 141.584 120.023 142.065 119.118C142.546 118.213 142.788 117.154 142.788 115.939C142.788 114.726 142.547 113.667 142.065 112.762C141.584 111.857 140.936 111.159 140.122 110.665C139.309 110.174 138.398 109.927 137.389 109.927C136.379 109.927 135.469 110.174 134.654 110.666C133.841 111.159 133.194 111.857 132.712 112.762C132.23 113.667 131.99 114.726 131.989 115.94C131.99 117.154 132.231 118.213 132.711 119.118C133.193 120.023 133.84 120.721 134.655 121.214C135.469 121.705 136.379 121.951 137.389 121.951C138.398 121.952 139.309 121.705 140.122 121.214ZM130.408 126.9C128.344 125.823 126.728 124.328 125.559 122.416C124.389 120.503 123.805 118.344 123.805 115.939C123.805 113.535 124.39 111.376 125.559 109.462C126.728 107.552 128.344 106.057 130.408 104.98C132.471 103.903 134.797 103.366 137.388 103.365C139.979 103.365 142.307 103.904 144.369 104.98C146.433 106.057 148.05 107.552 149.219 109.463C150.388 111.376 150.972 113.535 150.972 115.94C150.972 118.344 150.388 120.504 149.218 122.416C148.049 124.329 146.433 125.823 144.369 126.9C142.307 127.976 139.979 128.515 137.389 128.515C134.797 128.515 132.471 127.976 130.408 126.9Z" fill="white"/>
<g clip-path="url(#clip0)">
<rect width="201" height="35" transform="translate(171 19)" fill="white"/>
<path d="M408.789 3.54946L391.277 0.54961L372.677 -33.5637L333.181 -9.41095L217.445 -29.2577L315.869 1.17613L315.594 1.34072L315.95 1.99379H234.761L219.109 -26.7145L148.439 16.4939L189.239 91.3362L237.549 61.7943H390.164V36.3513L403.42 28.2438L404.939 28.7163L405.174 27.1713L405.635 26.8899L405.31 26.2899L408.789 3.54946Z" fill="white"/>
<path d="M193.335 39.4892H195.667L196.569 35.9213H194.238L194.739 33.8824H197.09L198.344 28.9659H200.635L199.387 33.8665H201.272L202.52 28.95H204.806L203.558 33.8665H205.899L205.398 35.9054H203.046L202.144 39.4733H204.485L203.984 41.5068H201.633L200.399 46.3969H198.108L199.341 41.5228H197.441L196.203 46.3969H193.912L195.155 41.5228H192.834L193.335 39.4892ZM199.853 39.4892L200.755 35.9213H198.86L197.948 39.4892H199.853Z" fill="#1E2A46"/>
<path d="M207.568 28.488H212.732L215.7 42.4254H215.745L218.718 28.488H223.907V46.3969H220.633V31.4242L217.395 46.3969H213.961L210.877 31.4242H210.832V46.3969H207.598V28.488H207.568Z" fill="#1E2A46"/>
<path d="M227.482 28.488H230.991V35.539H234.36C234.611 35.539 234.937 35.539 235.333 35.5656C235.761 35.5861 236.187 35.6447 236.606 35.7408C237.073 35.8488 237.527 36.0108 237.96 36.2239C238.424 36.4465 238.843 36.762 239.193 37.1531C239.587 37.5958 239.892 38.1176 240.091 38.6875C240.342 39.4239 240.459 40.2039 240.437 40.9865C240.459 41.7622 240.342 42.5353 240.091 43.2643C239.892 43.8279 239.594 44.3467 239.213 44.7934C238.88 45.1806 238.478 45.4945 238.03 45.7173C237.625 45.9254 237.2 46.0857 236.762 46.1951C236.391 46.2879 236.014 46.3465 235.634 46.3703C235.293 46.3703 235.042 46.3969 234.882 46.3969H227.462L227.482 28.488ZM230.991 43.3014H233.999C234.335 43.3 234.67 43.2752 235.002 43.2271C235.332 43.1809 235.651 43.073 235.945 42.9085C236.238 42.738 236.482 42.4867 236.652 42.1811C236.851 41.7871 236.947 41.3431 236.927 40.8963C236.949 40.4379 236.856 39.9816 236.657 39.5742C236.489 39.2689 236.244 39.019 235.95 38.8521C235.638 38.6808 235.297 38.5778 234.947 38.5495C234.582 38.5068 234.216 38.4855 233.849 38.4858H231.011V43.3014H230.991ZM242.728 28.488H246.237V46.3969H242.728V28.488Z" fill="#1E2A46"/>
<path d="M249.711 28.488H258.003C258.617 28.4789 259.23 28.5485 259.828 28.695C260.306 28.8126 260.765 29.0021 261.192 29.2578C261.877 29.6681 262.429 30.2881 262.776 31.0365C262.926 31.3635 263.036 31.7097 263.102 32.0665C263.166 32.3951 263.199 32.7293 263.202 33.0647C263.205 33.475 263.167 33.8844 263.087 34.2859C263.017 34.6332 262.895 34.9666 262.726 35.2735C262.558 35.5784 262.341 35.8497 262.084 36.0752C261.794 36.332 261.476 36.5512 261.137 36.7283C261.642 36.9204 262.11 37.2103 262.515 37.5831C262.839 37.884 263.108 38.2436 263.312 38.645C263.492 39.0227 263.615 39.4274 263.678 39.8449C263.739 40.2364 263.771 40.6322 263.774 41.0289C263.79 41.8227 263.637 42.6101 263.328 43.3332C263.037 43.9929 262.602 44.5698 262.059 45.0163C261.461 45.4962 260.78 45.8462 260.054 46.0464C259.209 46.2913 258.337 46.411 257.462 46.4021H249.711V28.488ZM253.1 35.5389H257.462C257.761 35.5398 258.059 35.5024 258.349 35.4274C258.621 35.3636 258.877 35.2407 259.101 35.0664C259.322 34.9015 259.503 34.6831 259.628 34.4293C259.762 34.1369 259.829 33.8148 259.823 33.4895C259.832 33.1645 259.772 32.8415 259.648 32.5444C259.532 32.3052 259.359 32.1021 259.146 31.955C258.927 31.8053 258.681 31.7025 258.424 31.6524C258.137 31.5937 257.845 31.5653 257.552 31.5675H253.095V35.5389H253.1ZM253.1 43.3014H257.507C257.871 43.3054 258.234 43.2554 258.585 43.1527C258.895 43.0669 259.186 42.9171 259.442 42.712C259.686 42.5128 259.879 42.2517 260.004 41.9528C260.145 41.619 260.215 41.2565 260.209 40.8909C260.226 40.4605 260.143 40.0322 259.968 39.6432C259.819 39.348 259.6 39.0991 259.332 38.9211C259.059 38.7425 258.753 38.6284 258.434 38.5866C258.102 38.5341 257.767 38.5074 257.432 38.5069H253.115V43.3173L253.1 43.3014Z" fill="#1E2A46"/>
<path d="M266.441 28.488H271.605L274.573 42.4254H274.618L277.586 28.488H282.8V46.3969H279.547V31.4242H279.501L276.283 46.3969H272.844L269.765 31.4242H269.72V46.3969H266.466L266.441 28.488Z" fill="#1E2A46"/>
<path d="M286.35 28.488H298.763V31.5675H289.739V35.539H298.041V38.645H289.744V43.1634H299.164V46.4022H286.35V28.488Z" fill="#1E2A46"/>
<path d="M312.715 34.3975C312.67 34.2223 312.61 34.0311 312.545 33.8081C312.471 33.5746 312.377 33.3488 312.264 33.1338C312.139 32.8926 311.988 32.668 311.813 32.4648C311.62 32.2334 311.393 32.0362 311.141 31.8808C310.842 31.6921 310.517 31.5524 310.178 31.4667C309.745 31.3537 309.3 31.3001 308.855 31.3074C308.599 31.3107 308.344 31.3392 308.093 31.3923C307.781 31.4568 307.479 31.5657 307.195 31.7162C306.866 31.8925 306.56 32.1158 306.288 32.3799C305.963 32.6978 305.693 33.0733 305.491 33.4896C305.234 34.0151 305.044 34.5738 304.924 35.1514C304.766 35.9114 304.694 36.6884 304.709 37.4663C304.696 38.3413 304.792 39.2143 304.994 40.0627C305.154 40.7574 305.435 41.4145 305.822 42.0006C306.165 42.5134 306.624 42.9282 307.155 43.208C307.687 43.4878 308.276 43.6238 308.87 43.6041C309.495 43.6289 310.117 43.5036 310.69 43.2377C311.112 43.0299 311.489 42.7316 311.798 42.3617C312.065 42.0366 312.277 41.6647 312.424 41.2626C312.565 40.8803 312.67 40.5458 312.745 40.2644H316.255C316.098 41.2886 315.776 42.2765 315.302 43.1846C314.887 43.9712 314.336 44.6682 313.678 45.2394C313.04 45.7827 312.312 46.1951 311.532 46.4553C309.601 47.0716 307.531 46.9799 305.656 46.1951C304.712 45.7713 303.873 45.1227 303.205 44.2996C302.516 43.4299 302.004 42.4197 301.7 41.3316C301.346 40.0728 301.177 38.7637 301.199 37.4504C301.19 36.4415 301.291 35.4349 301.5 34.4506C301.679 33.6222 301.961 32.8224 302.337 32.0719C302.979 30.7795 303.966 29.7158 305.175 29.0137C305.741 28.6862 306.346 28.4415 306.975 28.2863C307.595 28.1215 308.231 28.0342 308.87 28.0261C309.696 28.014 310.52 28.1157 311.321 28.3288C311.978 28.5114 312.609 28.7864 313.196 29.1464C313.704 29.4645 314.167 29.8578 314.57 30.3145C314.931 30.7269 315.244 31.1832 315.503 31.6737C315.736 32.116 315.918 32.5867 316.044 33.0754C316.158 33.4949 316.232 33.9253 316.265 34.3603L312.715 34.3975Z" fill="#1E2A46"/>
<path d="M317.438 28.488H331.286V31.5675H326.122V46.3969H322.587V31.5675H317.438V28.488Z" fill="#1E2A46"/>
<path d="M333.491 28.488H345.905V31.5675H336.88V35.539H345.178V38.645H336.885V43.1634H346.306V46.4022H333.491V28.488Z" fill="#1E2A46"/>
</g>
<path d="M240.703 95.0124C241.853 94.9447 243.004 95.2154 244.019 95.8922C244.831 96.5689 245.305 97.5841 245.237 98.6669C245.305 99.7497 244.696 100.765 243.748 101.306C244.425 101.374 245.034 101.712 245.508 102.186C246.185 102.863 246.523 103.743 246.455 104.69C246.455 105.705 246.049 106.72 245.305 107.397C244.357 108.141 243.139 108.548 241.921 108.48H237.387V95.0124H240.703ZM240.026 100.629H240.771C241.177 100.629 242.801 100.562 242.801 98.8699C242.801 97.6518 241.853 97.178 240.771 97.178H240.026V100.629ZM240.026 106.314H241.177C241.786 106.382 242.395 106.247 243.004 105.976C243.545 105.637 243.884 105.028 243.816 104.419C243.816 103.743 243.41 103.133 242.801 102.863C242.259 102.66 241.65 102.524 240.974 102.592H240.026V106.314Z" fill="white"/>
<path d="M256.742 100.697C258.637 102.524 258.705 105.502 256.877 107.397C256.81 107.464 256.81 107.464 256.742 107.532C254.644 109.156 251.734 109.156 249.704 107.532C247.809 105.705 247.741 102.727 249.568 100.832C249.636 100.765 249.636 100.765 249.704 100.697C251.734 99.005 254.644 99.005 256.742 100.697ZM255.659 104.081C255.659 102.727 254.576 101.644 253.223 101.644C251.869 101.644 250.787 102.727 250.787 104.081C250.787 105.434 251.869 106.517 253.223 106.517C254.509 106.585 255.659 105.502 255.659 104.081C255.659 104.148 255.659 104.148 255.659 104.081Z" fill="white"/>
<path d="M268.11 108.48H265.674V101.848H263.305V105.028C263.373 105.976 263.034 106.856 262.493 107.6C261.884 108.209 261.004 108.547 260.124 108.547C259.854 108.547 259.651 108.547 259.38 108.48V106.382C259.515 106.382 259.651 106.449 259.786 106.449C260.192 106.449 260.53 106.314 260.801 106.043C261.004 105.705 261.139 105.299 261.072 104.961V99.8173H268.11V108.48Z" fill="white"/>
<path d="M278.735 100.697C280.63 102.524 280.698 105.502 278.871 107.397C278.803 107.464 278.803 107.464 278.735 107.532C276.637 109.156 273.727 109.156 271.697 107.532C269.802 105.705 269.734 102.727 271.562 100.832C271.629 100.765 271.629 100.765 271.697 100.697C273.727 99.005 276.705 99.005 278.735 100.697ZM277.652 104.081C277.652 102.727 276.57 101.644 275.216 101.644C273.863 101.644 272.78 102.727 272.78 104.081C272.78 105.434 273.863 106.517 275.216 106.517C276.57 106.585 277.652 105.502 277.652 104.081C277.652 104.148 277.652 104.148 277.652 104.081Z" fill="white"/>
<path d="M282.323 99.7498H284.76V102.863H288.211V99.7498H290.647V108.48H288.211V104.893H284.76V108.48H282.323V99.7498Z" fill="white"/>
<path d="M297.685 101.848V108.48H295.249V101.848H292.812V99.7498H300.121V101.848H297.685Z" fill="white"/>
<path d="M310.273 106.043C309.596 107.803 307.837 108.886 305.942 108.75C304.723 108.818 303.505 108.344 302.625 107.532C301.678 106.652 301.204 105.434 301.272 104.148C301.204 102.863 301.746 101.644 302.625 100.697C303.505 99.8849 304.656 99.4111 305.874 99.4788C307.16 99.4111 308.446 99.9525 309.258 100.9C310.002 101.847 310.408 103.066 310.341 104.284V104.487H303.776C303.776 105.028 303.911 105.502 304.182 105.976C304.588 106.517 305.265 106.855 305.942 106.788C306.754 106.788 307.566 106.382 307.972 105.637L310.273 106.043ZM307.972 102.93C307.837 101.78 306.821 100.968 305.671 101.035C304.656 101.103 303.911 101.915 303.776 102.93H307.972Z" fill="white"/>
<path d="M314.673 113.082H312.236V99.7494H314.673V100.9C315.349 99.9524 316.365 99.411 317.515 99.4787C318.598 99.4787 319.681 99.8848 320.493 100.629C321.373 101.577 321.846 102.795 321.779 104.081C321.846 105.366 321.373 106.652 320.425 107.6C319.613 108.344 318.53 108.75 317.447 108.75C316.297 108.818 315.282 108.277 314.605 107.329V113.082H314.673ZM315.282 102.186C314.74 102.659 314.402 103.336 314.47 104.081C314.47 104.825 314.74 105.502 315.282 105.976C315.755 106.382 316.297 106.585 316.906 106.585C317.515 106.585 318.124 106.382 318.53 105.976C319.004 105.502 319.275 104.825 319.275 104.148C319.275 103.472 319.004 102.795 318.53 102.321C318.056 101.915 317.447 101.712 316.838 101.712C316.229 101.577 315.688 101.78 315.282 102.186Z" fill="white"/>
<path d="M326.109 99.7498V102.863H328.004C328.884 102.795 329.696 103.134 330.373 103.743C330.846 104.284 331.05 104.961 331.05 105.638C331.117 107.126 330.034 108.412 328.478 108.48C328.342 108.48 328.275 108.48 328.139 108.48H323.673V99.7498H326.109ZM327.26 106.517C327.598 106.517 327.936 106.45 328.207 106.314C328.41 106.179 328.546 105.908 328.546 105.638C328.546 105.367 328.478 105.096 328.207 104.961C327.936 104.825 327.666 104.758 327.327 104.758H326.177V106.517H327.26ZM334.433 99.7498V108.48H331.997V99.7498H334.433Z" fill="white"/>
<path d="M237.657 116.127H239.484L241.92 121.135L244.289 116.127H246.116L247.741 124.857H245.304L244.56 120.12L242.394 124.857H241.514L239.349 120.12L238.604 124.857H236.168L237.657 116.127Z" fill="white"/>
<path d="M258.298 122.421C257.621 124.18 255.861 125.263 253.966 125.128C252.748 125.195 251.462 124.722 250.583 123.91C249.635 123.03 249.161 121.812 249.229 120.526C249.161 119.24 249.703 118.022 250.583 117.074C251.462 116.262 252.68 115.788 253.899 115.856C255.184 115.788 256.47 116.33 257.282 117.277C258.027 118.292 258.433 119.443 258.365 120.729V120.932H251.801C251.801 121.473 251.936 121.947 252.207 122.421C252.613 122.962 253.29 123.3 253.966 123.233C254.778 123.233 255.591 122.827 255.997 122.082L258.298 122.421ZM255.997 119.375C255.794 118.225 254.711 117.48 253.56 117.616C252.68 117.751 252.004 118.428 251.801 119.375H255.997Z" fill="white"/>
<path d="M268.855 116.127V122.759H270.141V127.429H267.908V124.857H261.885V127.429H259.651V122.759C260.328 122.692 260.937 122.286 261.208 121.677C261.479 120.932 261.614 120.188 261.546 119.443V116.127H268.855ZM266.419 118.225H263.847V120.188C263.915 121.135 263.577 122.15 262.9 122.759H266.487V118.225H266.419Z" fill="white"/>
<path d="M274.743 116.127V121.541L278.804 116.127H281.24V124.857H278.804V119.443L274.743 124.857H272.307V116.127H274.743Z" fill="white"/>
<path d="M286.586 116.127V119.511L289.834 116.127H292.88L288.954 120.052L293.083 124.925H289.97L286.924 121.338L286.586 121.677V124.925H284.149V116.127H286.586Z" fill="white"/>
<path d="M297.076 116.127V121.541L301.137 116.127H303.573V124.857H301.137V119.443L297.076 124.857H294.64V116.127H297.076Z" fill="white"/>
<path d="M223.445 113.691H208.827C210.79 109.901 211.94 105.841 212.143 101.577C212.143 101.103 212.211 100.697 212.211 100.291C211.94 97.1104 209.233 94.8094 206.052 95.0125C203.481 95.2155 201.315 97.1104 200.841 99.6821C200.841 100.223 200.841 100.765 200.774 101.306C200.029 110.646 192.585 118.022 183.313 118.767C182.772 118.834 182.231 118.834 181.689 118.834C178.576 119.443 176.546 122.421 177.087 125.467C177.561 128.038 179.659 129.865 182.298 130.136C182.704 130.136 183.178 130.136 183.584 130.068C187.848 129.798 191.908 128.647 195.698 126.752V141.37C195.698 143.807 197.661 145.769 200.097 145.769H204.022C206.459 145.769 208.421 143.807 208.421 141.37V130.948C208.421 128.512 210.384 126.549 212.82 126.549H223.174C225.611 126.549 227.573 124.587 227.573 122.218C227.573 122.218 227.573 122.218 227.573 122.15V118.225C227.912 115.654 225.881 113.691 223.445 113.691Z" fill="white"/>
<path d="M191.234 96.9752C189.474 96.9752 187.985 98.3964 187.985 100.224C187.985 102.051 189.407 103.404 191.234 103.404C193.061 103.404 194.482 101.983 194.482 100.224C194.415 98.3964 192.993 96.9752 191.234 96.9752Z" fill="white"/>
<path d="M185.481 109.089C185.481 107.33 184.06 105.841 182.233 105.841C180.405 105.841 179.052 107.262 179.052 109.089C179.052 110.916 180.473 112.338 182.233 112.338C184.06 112.27 185.481 110.849 185.481 109.089Z" fill="white"/>
<path d="M236.643 138.054V133.994H237.861C238.064 133.994 238.267 133.994 238.402 134.061C238.537 134.061 238.741 134.129 238.876 134.264C239.011 134.332 239.079 134.468 239.147 134.603C239.214 134.738 239.282 134.874 239.282 135.077C239.282 135.28 239.214 135.483 239.147 135.618C239.011 135.753 238.876 135.889 238.673 135.956C238.876 136.024 239.147 136.092 239.282 136.295C239.417 136.498 239.553 136.701 239.485 136.972C239.485 137.175 239.417 137.31 239.35 137.513C239.282 137.648 239.147 137.784 239.011 137.919C238.876 138.054 238.673 138.122 238.537 138.122C238.334 138.19 238.131 138.19 237.928 138.19L236.643 138.054ZM237.184 135.686H237.793C238.064 135.686 238.334 135.618 238.537 135.483C238.673 135.347 238.808 135.212 238.741 135.009C238.741 134.806 238.673 134.603 238.537 134.468C238.334 134.332 238.064 134.332 237.793 134.332H237.184V135.686ZM237.184 137.648H237.861C238.131 137.648 238.47 137.581 238.673 137.445C238.876 137.31 239.011 137.107 238.944 136.836C238.944 136.633 238.876 136.362 238.673 136.295C238.402 136.159 238.131 136.092 237.861 136.159H237.184V137.648Z" fill="white"/>
<path d="M241.651 138.122C241.448 138.122 241.245 138.054 241.109 137.986C240.906 137.919 240.771 137.783 240.636 137.648C240.5 137.513 240.433 137.31 240.365 137.174C240.297 136.971 240.229 136.701 240.229 136.498C240.229 136.295 240.229 136.024 240.365 135.821C240.433 135.618 240.568 135.482 240.703 135.347C240.839 135.212 240.974 135.076 241.177 135.009C241.38 134.941 241.515 134.873 241.718 134.873C241.921 134.873 242.057 134.873 242.26 135.009C242.395 135.076 242.53 135.144 242.666 135.279L242.395 135.618C242.327 135.55 242.192 135.482 242.124 135.415C242.057 135.347 241.921 135.347 241.786 135.347C241.651 135.347 241.515 135.347 241.38 135.415C241.245 135.482 241.177 135.55 241.109 135.618C241.042 135.753 240.974 135.821 240.906 136.024C240.839 136.159 240.839 136.362 240.839 136.498C240.839 136.633 240.839 136.836 240.906 136.971C240.974 137.107 241.042 137.242 241.109 137.31C241.177 137.377 241.312 137.513 241.38 137.513C241.515 137.58 241.651 137.58 241.786 137.58C241.921 137.58 242.057 137.58 242.192 137.513C242.327 137.445 242.395 137.377 242.53 137.31L242.733 137.648C242.598 137.783 242.463 137.851 242.26 137.919C241.989 138.054 241.854 138.122 241.651 138.122Z" fill="white"/>
<path d="M244.628 138.122C244.425 138.122 244.221 138.054 244.086 137.986C243.883 137.919 243.748 137.783 243.612 137.648C243.477 137.513 243.342 137.31 243.274 137.174C243.206 136.971 243.139 136.701 243.139 136.498C243.139 136.295 243.139 136.024 243.274 135.821C243.342 135.618 243.477 135.482 243.545 135.347C243.68 135.212 243.815 135.076 243.951 135.009C244.086 134.941 244.289 134.873 244.492 134.873C244.695 134.873 244.831 134.873 245.034 134.941C245.169 135.009 245.304 135.076 245.44 135.212C245.575 135.347 245.643 135.482 245.643 135.686C245.71 135.889 245.71 136.092 245.71 136.295V136.43C245.71 136.498 245.71 136.498 245.71 136.565H243.68C243.68 136.836 243.815 137.107 243.951 137.31C244.154 137.513 244.357 137.58 244.628 137.58C244.763 137.58 244.898 137.58 245.034 137.513C245.169 137.445 245.304 137.445 245.372 137.31L245.575 137.648C245.44 137.716 245.304 137.783 245.101 137.851C244.966 138.054 244.763 138.122 244.628 138.122ZM243.612 136.295H245.237C245.237 136.024 245.169 135.821 245.034 135.618C244.898 135.482 244.695 135.347 244.492 135.347C244.357 135.347 244.289 135.347 244.221 135.415C244.154 135.482 244.018 135.55 243.951 135.618C243.883 135.686 243.815 135.821 243.748 135.889C243.68 136.024 243.68 136.159 243.612 136.295Z" fill="white"/>
<path d="M246.591 139.34V135.009H246.997L247.065 135.347C247.2 135.212 247.335 135.144 247.538 135.076C247.877 134.941 248.215 134.941 248.553 135.076C248.689 135.144 248.824 135.279 248.959 135.415C249.095 135.55 249.162 135.753 249.162 135.888C249.23 136.091 249.23 136.294 249.23 136.497C249.23 136.7 249.162 136.971 249.095 137.174C249.027 137.377 248.959 137.513 248.824 137.716C248.689 137.851 248.553 137.986 248.418 138.054C248.283 138.122 248.08 138.189 247.944 138.189C247.809 138.189 247.674 138.122 247.538 138.122C247.403 138.054 247.268 137.986 247.132 137.851V138.392V139.407L246.591 139.34ZM247.877 137.648C248.012 137.648 248.147 137.648 248.215 137.58C248.35 137.513 248.418 137.445 248.486 137.377C248.553 137.242 248.621 137.107 248.689 136.971C248.756 136.836 248.756 136.633 248.756 136.43C248.756 136.294 248.756 136.159 248.689 135.956C248.689 135.821 248.621 135.685 248.553 135.618C248.486 135.55 248.418 135.415 248.283 135.415C248.08 135.279 247.741 135.279 247.538 135.415C247.403 135.482 247.268 135.618 247.132 135.685V137.242C247.268 137.377 247.403 137.445 247.538 137.513C247.674 137.648 247.741 137.648 247.877 137.648Z" fill="white"/>
<path d="M251.463 138.122C251.26 138.122 251.124 138.054 250.921 137.986C250.786 137.919 250.583 137.783 250.448 137.648C250.312 137.513 250.177 137.31 250.109 137.174C249.974 136.768 249.974 136.227 250.109 135.821C250.177 135.618 250.312 135.482 250.448 135.347C250.583 135.212 250.718 135.076 250.921 135.009C251.057 134.941 251.26 134.873 251.463 134.873C251.666 134.873 251.801 134.873 252.004 135.009C252.14 135.076 252.343 135.212 252.478 135.347C252.613 135.482 252.749 135.686 252.816 135.821C252.952 136.227 252.952 136.768 252.816 137.174C252.749 137.377 252.613 137.513 252.478 137.648C252.343 137.783 252.207 137.919 252.004 137.986C251.801 138.054 251.598 138.122 251.463 138.122ZM251.463 137.716C251.598 137.716 251.734 137.716 251.801 137.648C251.937 137.58 252.004 137.513 252.072 137.445C252.14 137.31 252.207 137.242 252.275 137.107C252.343 136.971 252.343 136.768 252.343 136.633C252.343 136.498 252.343 136.295 252.275 136.159C252.207 136.024 252.207 135.889 252.072 135.753C252.004 135.686 251.937 135.55 251.801 135.55C251.666 135.482 251.598 135.482 251.463 135.482C251.327 135.482 251.192 135.482 251.057 135.55C250.921 135.618 250.854 135.686 250.786 135.753C250.718 135.889 250.651 136.024 250.583 136.159C250.515 136.295 250.515 136.498 250.515 136.633C250.515 136.768 250.515 136.971 250.583 137.107C250.651 137.242 250.651 137.377 250.786 137.445C250.854 137.513 250.921 137.648 251.057 137.648C251.192 137.648 251.327 137.716 251.463 137.716Z" fill="white"/>
<path d="M254.983 138.122C254.78 138.122 254.577 138.054 254.442 137.986C254.239 137.919 254.103 137.783 253.968 137.648C253.833 137.513 253.765 137.31 253.697 137.174C253.562 136.768 253.562 136.227 253.697 135.821C253.765 135.618 253.9 135.482 254.036 135.347C254.171 135.212 254.306 135.076 254.509 135.009C254.712 134.941 254.848 134.873 255.051 134.873C255.254 134.873 255.389 134.873 255.592 135.009C255.727 135.076 255.863 135.144 255.998 135.279L255.727 135.618C255.66 135.55 255.524 135.482 255.457 135.415C255.321 135.347 255.254 135.347 255.118 135.347C254.983 135.347 254.848 135.347 254.712 135.415C254.577 135.482 254.509 135.55 254.442 135.618C254.374 135.753 254.306 135.821 254.239 136.024C254.171 136.159 254.171 136.362 254.171 136.498C254.171 136.633 254.171 136.836 254.239 136.971C254.306 137.107 254.374 137.242 254.442 137.31C254.509 137.377 254.645 137.513 254.712 137.513C254.848 137.58 254.983 137.58 255.118 137.58C255.254 137.58 255.389 137.58 255.524 137.513C255.66 137.445 255.727 137.377 255.863 137.31L256.066 137.648C255.931 137.783 255.795 137.851 255.592 137.919C255.321 138.054 255.186 138.122 254.983 138.122Z" fill="white"/>
<path d="M257.892 138.122C257.689 138.122 257.486 138.054 257.351 137.986C257.148 137.919 257.012 137.783 256.877 137.648C256.742 137.513 256.674 137.31 256.606 137.174C256.471 136.768 256.471 136.227 256.606 135.821C256.674 135.618 256.809 135.482 256.945 135.347C257.08 135.212 257.215 135.076 257.419 135.009C257.622 134.941 257.757 134.873 257.96 134.873C258.163 134.873 258.298 134.873 258.501 135.009C258.637 135.076 258.772 135.144 258.907 135.279L258.637 135.618C258.569 135.55 258.434 135.482 258.366 135.415C258.231 135.347 258.163 135.347 258.028 135.347C257.892 135.347 257.757 135.347 257.622 135.415C257.486 135.482 257.419 135.55 257.351 135.618C257.283 135.753 257.215 135.821 257.148 136.024C257.08 136.159 257.08 136.362 257.08 136.498C257.08 136.633 257.08 136.836 257.148 136.971C257.215 137.107 257.283 137.242 257.351 137.31C257.419 137.377 257.554 137.513 257.622 137.513C257.757 137.58 257.892 137.58 258.028 137.58C258.163 137.58 258.298 137.58 258.434 137.513C258.569 137.445 258.637 137.377 258.772 137.31L258.975 137.648C258.84 137.783 258.704 137.851 258.501 137.919C258.298 138.054 258.095 138.122 257.892 138.122Z" fill="white"/>
<path d="M259.72 138.054V135.009H260.193V136.295C260.193 136.43 260.193 136.633 260.193 136.836C260.193 137.039 260.193 137.242 260.193 137.445L260.396 137.107L260.6 136.768L261.75 135.076H262.224V138.122H261.75V136.768C261.75 136.633 261.75 136.43 261.75 136.227C261.75 136.024 261.75 135.821 261.818 135.618L261.615 135.956C261.547 136.092 261.479 136.159 261.412 136.295L260.261 138.054H259.72Z" fill="white"/>
<path d="M263.306 138.054V135.009H263.779V136.295C263.779 136.43 263.779 136.633 263.779 136.836C263.779 137.039 263.779 137.242 263.712 137.445L263.915 137.107C263.982 136.971 264.05 136.904 264.118 136.768L265.268 135.076H265.742V138.122H265.268V136.768C265.268 136.633 265.268 136.43 265.268 136.227C265.268 136.024 265.268 135.821 265.336 135.618L265.133 135.956C265.065 136.092 264.998 136.159 264.93 136.295L263.779 138.054H263.306ZM264.592 134.467C264.456 134.467 264.321 134.467 264.185 134.4C264.05 134.332 263.982 134.264 263.915 134.197C263.847 134.129 263.779 133.994 263.712 133.858C263.644 133.723 263.644 133.655 263.644 133.52H264.05C264.05 133.588 264.05 133.723 264.118 133.791C264.118 133.858 264.185 133.926 264.185 133.994C264.253 134.061 264.321 134.129 264.388 134.129C264.456 134.197 264.524 134.197 264.659 134.197C264.727 134.197 264.862 134.197 264.93 134.129C264.998 134.129 265.065 134.061 265.133 133.994C265.201 133.926 265.201 133.858 265.201 133.791C265.201 133.723 265.201 133.588 265.268 133.52H265.674C265.674 133.655 265.674 133.791 265.607 133.858C265.607 133.994 265.539 134.061 265.404 134.197C265.336 134.264 265.201 134.332 265.133 134.4C264.93 134.4 264.727 134.467 264.592 134.467Z" fill="white"/>
<path d="M268.18 138.122C267.977 138.122 267.774 138.054 267.639 137.986C267.436 137.919 267.301 137.783 267.165 137.648C267.03 137.513 266.962 137.31 266.894 137.174C266.759 136.768 266.759 136.227 266.894 135.821C266.962 135.618 267.098 135.482 267.233 135.347C267.368 135.212 267.504 135.076 267.707 135.009C267.91 134.941 268.045 134.873 268.248 134.873C268.451 134.873 268.586 134.873 268.789 135.009C268.925 135.076 269.06 135.144 269.195 135.279L268.925 135.618C268.857 135.55 268.722 135.482 268.654 135.415C268.519 135.347 268.451 135.347 268.316 135.347C268.18 135.347 268.045 135.347 267.91 135.415C267.774 135.482 267.707 135.55 267.639 135.618C267.571 135.753 267.504 135.889 267.436 136.024C267.368 136.159 267.368 136.362 267.368 136.498C267.368 136.633 267.368 136.836 267.436 136.971C267.504 137.107 267.571 137.242 267.639 137.31C267.707 137.377 267.842 137.513 267.91 137.513C268.045 137.58 268.18 137.58 268.316 137.58C268.451 137.58 268.586 137.58 268.722 137.513C268.857 137.445 268.925 137.377 269.06 137.31L269.263 137.648C269.128 137.783 268.992 137.851 268.789 137.919C268.519 138.054 268.383 138.122 268.18 138.122Z" fill="white"/>
<path d="M269.938 138.054V135.009H270.48V136.227H271.089L271.36 135.55C271.427 135.415 271.495 135.347 271.563 135.212C271.63 135.144 271.698 135.076 271.766 135.009C271.833 134.941 271.901 134.941 271.969 134.941C272.036 134.941 272.104 134.941 272.172 134.941C272.239 134.941 272.307 134.941 272.375 134.941L272.307 135.415H272.239H272.172C272.104 135.415 272.104 135.415 272.036 135.415C271.969 135.415 271.969 135.415 271.901 135.482L271.766 135.618C271.698 135.685 271.698 135.753 271.63 135.821L271.36 136.43L272.375 137.986H271.833L270.954 136.633H270.345V137.986L269.938 138.054Z" fill="white"/>
<path d="M274.27 138.122C274.067 138.122 273.932 138.054 273.729 137.986C273.594 137.919 273.391 137.783 273.255 137.648C273.12 137.513 272.985 137.31 272.917 137.174C272.782 136.768 272.782 136.227 272.917 135.821C272.985 135.618 273.12 135.482 273.255 135.347C273.391 135.212 273.526 135.076 273.729 135.009C274.067 134.873 274.473 134.873 274.812 135.009C274.947 135.076 275.15 135.212 275.286 135.347C275.421 135.482 275.556 135.685 275.624 135.821C275.759 136.227 275.759 136.768 275.624 137.174C275.556 137.377 275.421 137.513 275.286 137.648C275.15 137.783 275.015 137.919 274.812 137.986C274.677 138.054 274.473 138.122 274.27 138.122ZM274.27 137.716C274.406 137.716 274.541 137.716 274.609 137.648C274.744 137.58 274.812 137.513 274.88 137.445C274.947 137.31 275.015 137.242 275.083 137.107C275.15 136.971 275.15 136.768 275.15 136.633C275.15 136.498 275.15 136.295 275.083 136.159C275.015 136.024 275.015 135.889 274.88 135.753C274.812 135.685 274.744 135.55 274.609 135.55C274.473 135.482 274.406 135.482 274.27 135.482C274.135 135.482 274 135.482 273.932 135.55C273.797 135.618 273.729 135.685 273.661 135.753C273.594 135.889 273.526 136.024 273.458 136.159C273.391 136.295 273.391 136.498 273.391 136.633C273.391 136.768 273.391 136.971 273.458 137.107C273.458 137.242 273.526 137.377 273.661 137.445C273.729 137.513 273.797 137.648 273.932 137.648C274.067 137.648 274.203 137.716 274.27 137.716Z" fill="white"/>
<path d="M277.925 138.122C277.722 138.122 277.519 138.054 277.316 137.986C277.113 137.919 276.977 137.783 276.842 137.648C276.707 137.513 276.571 137.31 276.504 137.174C276.436 136.971 276.368 136.701 276.368 136.498C276.368 136.295 276.436 136.024 276.504 135.821C276.571 135.618 276.707 135.482 276.774 135.347C276.91 135.212 277.045 135.076 277.18 135.009C277.316 134.941 277.519 134.873 277.722 134.873C277.925 134.873 278.06 134.873 278.263 134.941C278.398 135.009 278.534 135.076 278.669 135.212C278.804 135.347 278.872 135.482 278.94 135.686C279.008 135.889 279.008 136.092 279.008 136.295C279.008 136.362 279.008 136.43 279.008 136.43C279.008 136.498 279.008 136.498 279.008 136.565H276.977C276.977 136.836 277.113 137.107 277.248 137.31C277.451 137.513 277.654 137.58 277.925 137.58C278.06 137.58 278.195 137.58 278.331 137.513C278.466 137.445 278.601 137.445 278.669 137.31L278.872 137.648C278.737 137.716 278.601 137.783 278.466 137.851C278.263 138.054 278.128 138.122 277.925 138.122ZM276.977 136.295H278.601C278.601 136.024 278.534 135.821 278.398 135.618C278.263 135.482 278.06 135.347 277.857 135.347C277.722 135.347 277.654 135.347 277.519 135.415C277.451 135.482 277.316 135.55 277.248 135.618C277.18 135.686 277.113 135.821 277.045 135.889C276.977 136.024 276.977 136.159 276.977 136.295Z" fill="white"/>
<path d="M237.793 145.837C237.59 145.837 237.455 145.769 237.252 145.702C237.048 145.634 236.913 145.499 236.778 145.431C236.642 145.296 236.507 145.093 236.439 144.957C236.304 144.551 236.304 144.01 236.439 143.604C236.507 143.401 236.642 143.265 236.778 143.13C236.913 142.995 237.048 142.859 237.252 142.792C237.59 142.656 237.996 142.656 238.334 142.792C238.537 142.859 238.673 142.995 238.808 143.13C238.943 143.265 239.079 143.468 239.146 143.604C239.282 144.01 239.282 144.551 239.146 144.957C239.079 145.16 238.943 145.296 238.808 145.431C238.673 145.566 238.537 145.634 238.334 145.702C238.131 145.769 237.996 145.837 237.793 145.837ZM237.793 145.363C238.064 145.363 238.267 145.228 238.402 145.025C238.47 144.89 238.537 144.822 238.605 144.686C238.673 144.551 238.673 144.348 238.673 144.213C238.673 144.077 238.673 143.874 238.605 143.739C238.537 143.604 238.537 143.468 238.402 143.401C238.334 143.265 238.267 143.198 238.131 143.13C237.996 143.062 237.928 143.062 237.793 143.062C237.658 143.062 237.522 143.062 237.455 143.13C237.319 143.198 237.252 143.265 237.184 143.401C237.116 143.536 237.048 143.604 236.981 143.739C236.913 143.874 236.913 144.077 236.913 144.213C236.913 144.348 236.913 144.551 236.981 144.686C237.048 144.822 237.048 144.957 237.184 145.025C237.252 145.093 237.319 145.228 237.455 145.228C237.522 145.363 237.658 145.363 237.793 145.363Z" fill="white"/>
<path d="M241.379 145.837C240.973 145.837 240.567 145.701 240.297 145.363C240.026 144.957 239.891 144.415 239.891 143.942C239.891 143.536 239.958 143.13 240.026 142.724C240.094 142.453 240.229 142.182 240.432 141.979C240.567 141.776 240.838 141.641 241.041 141.573C241.312 141.505 241.583 141.438 241.853 141.37H242.056H242.192L242.327 141.302L242.462 141.235L242.53 141.708C242.462 141.776 242.327 141.776 242.259 141.844C242.124 141.844 242.056 141.911 241.921 141.911C241.65 141.911 241.447 141.979 241.312 142.047C241.176 142.047 241.041 142.115 240.906 142.182C240.77 142.318 240.703 142.453 240.635 142.588C240.567 142.791 240.5 143.062 240.5 143.333C240.635 143.197 240.77 143.062 240.973 142.927C241.176 142.859 241.312 142.791 241.515 142.791C241.718 142.791 241.853 142.791 241.989 142.859C242.124 142.927 242.259 142.994 242.395 143.13C242.53 143.265 242.598 143.4 242.665 143.603C242.733 143.806 242.733 144.009 242.733 144.212C242.733 144.415 242.665 144.686 242.598 144.889C242.53 145.092 242.462 145.228 242.327 145.363C242.192 145.498 242.056 145.634 241.921 145.701C241.718 145.769 241.583 145.837 241.379 145.837ZM241.379 145.363C241.515 145.363 241.583 145.363 241.718 145.295C241.786 145.228 241.921 145.16 241.989 145.092C242.056 144.957 242.124 144.889 242.192 144.754C242.259 144.619 242.259 144.415 242.259 144.28C242.259 144.009 242.192 143.739 242.056 143.536C241.921 143.333 241.718 143.265 241.447 143.265C241.312 143.265 241.109 143.333 240.973 143.4C240.77 143.536 240.635 143.671 240.5 143.806V144.009C240.5 144.348 240.567 144.686 240.703 145.025C240.838 145.228 241.109 145.431 241.379 145.363Z" fill="white"/>
<path d="M247.268 146.784V145.701H243.682V142.656H244.223V145.295H245.306V142.656H245.78V145.295H246.862V142.656H247.404V145.295H247.878V145.634L247.81 146.784H247.268Z" fill="white"/>
<path d="M249.703 145.837C249.5 145.837 249.297 145.769 249.162 145.701C248.959 145.634 248.824 145.498 248.688 145.363C248.553 145.228 248.418 145.025 248.418 144.889C248.35 144.686 248.282 144.416 248.282 144.212C248.282 144.009 248.35 143.739 248.418 143.536C248.485 143.333 248.621 143.197 248.688 143.062C248.824 142.927 248.959 142.791 249.094 142.724C249.23 142.656 249.433 142.588 249.636 142.588C249.839 142.588 249.974 142.588 250.177 142.724C250.312 142.791 250.448 142.859 250.583 142.994C250.719 143.13 250.786 143.265 250.786 143.468C250.854 143.671 250.854 143.874 250.854 144.077C250.854 144.145 250.854 144.212 250.854 144.212C250.854 144.28 250.854 144.28 250.854 144.348H248.824C248.824 144.619 248.959 144.889 249.094 145.092C249.297 145.295 249.568 145.363 249.839 145.363C249.974 145.363 250.109 145.363 250.245 145.295C250.38 145.228 250.516 145.228 250.583 145.092L250.786 145.431C250.651 145.498 250.516 145.566 250.312 145.634C250.109 145.769 249.906 145.837 249.703 145.837ZM248.756 144.009H250.38C250.38 143.739 250.312 143.536 250.177 143.333C250.042 143.197 249.839 143.062 249.636 143.13C249.5 143.13 249.433 143.13 249.297 143.197C249.23 143.265 249.094 143.333 249.027 143.4C248.959 143.468 248.891 143.603 248.824 143.671C248.824 143.739 248.756 143.874 248.756 144.009Z" fill="white"/>
<path d="M252.952 145.837C252.749 145.837 252.546 145.769 252.411 145.701C252.208 145.634 252.073 145.498 251.937 145.431C251.802 145.295 251.734 145.092 251.667 144.957C251.599 144.754 251.531 144.483 251.531 144.28C251.531 144.077 251.599 143.806 251.667 143.603C251.734 143.4 251.87 143.265 252.005 143.13C252.14 142.994 252.276 142.859 252.479 142.791C252.682 142.724 252.817 142.656 253.02 142.656C253.223 142.656 253.358 142.656 253.562 142.791C253.697 142.859 253.832 142.927 253.968 143.062L253.697 143.4C253.629 143.333 253.494 143.265 253.426 143.197C253.358 143.13 253.223 143.13 253.088 143.13C252.952 143.13 252.817 143.13 252.682 143.197C252.546 143.265 252.479 143.333 252.411 143.468C252.343 143.603 252.276 143.671 252.208 143.806C252.14 143.942 252.14 144.145 252.14 144.28C252.14 144.416 252.14 144.619 252.208 144.754C252.276 144.889 252.343 145.025 252.411 145.092C252.479 145.16 252.614 145.295 252.682 145.295C252.817 145.363 252.952 145.363 253.088 145.363C253.223 145.363 253.358 145.363 253.494 145.295C253.629 145.228 253.697 145.16 253.832 145.092L254.035 145.431C253.9 145.566 253.765 145.634 253.562 145.701C253.358 145.769 253.155 145.837 252.952 145.837Z" fill="white"/>
<path d="M255.591 145.769V143.13H254.576V142.724H257.148V143.13H256.133V145.769H255.591Z" fill="white"/>
<path d="M257.894 145.769V142.724H259.044C259.179 142.724 259.315 142.724 259.518 142.792C259.653 142.792 259.788 142.859 259.856 142.927C259.924 142.995 260.059 143.062 260.059 143.13C260.127 143.265 260.127 143.333 260.127 143.468C260.127 143.604 260.059 143.739 259.992 143.874C259.924 144.01 259.788 144.077 259.585 144.077C259.653 144.077 259.788 144.145 259.856 144.145C259.924 144.213 259.992 144.213 260.059 144.28C260.127 144.348 260.195 144.416 260.195 144.483C260.195 144.551 260.262 144.686 260.262 144.754C260.262 144.889 260.262 145.025 260.195 145.16C260.127 145.296 260.059 145.363 259.924 145.431C259.788 145.499 259.653 145.566 259.518 145.566C259.382 145.566 259.179 145.634 259.044 145.634L257.894 145.769ZM258.367 144.01H258.976C259.179 144.01 259.382 144.01 259.518 143.874C259.653 143.807 259.653 143.671 259.653 143.536C259.653 143.401 259.585 143.265 259.518 143.198C259.382 143.13 259.179 143.062 258.976 143.062H258.367V144.01ZM258.367 145.363H259.044C259.247 145.363 259.45 145.296 259.585 145.228C259.721 145.16 259.788 144.957 259.788 144.822C259.788 144.686 259.721 144.551 259.585 144.483C259.382 144.416 259.179 144.348 258.976 144.348H258.367V145.363Z" fill="white"/>
<path d="M262.428 145.837C262.225 145.837 262.022 145.769 261.887 145.701C261.684 145.634 261.548 145.498 261.413 145.363C261.278 145.228 261.142 145.025 261.142 144.889C261.075 144.686 261.007 144.416 261.007 144.212C261.007 144.009 261.075 143.739 261.142 143.536C261.21 143.333 261.345 143.197 261.413 143.062C261.548 142.927 261.684 142.791 261.819 142.724C261.954 142.656 262.157 142.588 262.36 142.588C262.563 142.588 262.699 142.588 262.902 142.724C263.037 142.791 263.172 142.859 263.308 142.994C263.443 143.13 263.511 143.265 263.579 143.468C263.646 143.671 263.646 143.874 263.646 144.077C263.646 144.145 263.646 144.212 263.646 144.212C263.646 144.28 263.646 144.28 263.646 144.348H261.616C261.616 144.619 261.751 144.889 261.887 145.092C262.09 145.295 262.36 145.363 262.631 145.363C262.766 145.363 262.902 145.363 263.037 145.295C263.172 145.228 263.308 145.228 263.375 145.092L263.579 145.431C263.443 145.498 263.308 145.566 263.172 145.634C262.834 145.769 262.631 145.837 262.428 145.837ZM261.481 144.009H263.105C263.105 143.739 263.037 143.536 262.902 143.333C262.766 143.197 262.563 143.062 262.36 143.13C262.225 143.13 262.157 143.13 262.022 143.197C261.954 143.265 261.819 143.333 261.751 143.4C261.684 143.468 261.616 143.603 261.548 143.671C261.548 143.739 261.481 143.874 261.481 144.009Z" fill="white"/>
<path d="M264.456 145.769V142.724H264.997V143.942H266.486V142.724H267.028V145.769H266.486V144.416H264.997V145.769H264.456Z" fill="white"/>
<path d="M268.044 145.769V142.724H268.585V143.942H270.074V142.724H270.616V145.769H270.074V144.416H268.585V145.769H268.044Z" fill="white"/>
<path d="M272.917 145.837C272.714 145.837 272.578 145.769 272.375 145.701C272.24 145.634 272.037 145.498 271.969 145.431C271.834 145.295 271.698 145.092 271.631 144.957C271.495 144.551 271.495 144.01 271.631 143.603C271.698 143.4 271.834 143.265 271.969 143.13C272.105 142.994 272.24 142.859 272.375 142.791C272.511 142.724 272.714 142.656 272.917 142.656C273.12 142.656 273.255 142.724 273.458 142.791C273.661 142.859 273.796 142.994 273.932 143.13C274.067 143.265 274.202 143.468 274.202 143.603C274.338 144.01 274.338 144.551 274.202 144.957C274.135 145.16 273.999 145.295 273.932 145.431C273.796 145.566 273.661 145.634 273.458 145.701C273.255 145.769 273.052 145.837 272.917 145.837ZM272.917 145.363C273.052 145.363 273.187 145.363 273.255 145.295C273.39 145.228 273.458 145.16 273.526 145.092C273.593 144.957 273.661 144.889 273.729 144.754C273.796 144.619 273.796 144.416 273.796 144.28C273.796 144.145 273.796 143.942 273.729 143.806C273.661 143.671 273.661 143.536 273.526 143.468C273.458 143.333 273.39 143.265 273.255 143.197C273.12 143.13 273.052 143.13 272.917 143.13C272.781 143.13 272.646 143.13 272.578 143.197C272.443 143.265 272.375 143.333 272.308 143.468C272.24 143.603 272.172 143.671 272.105 143.806C272.037 143.942 272.037 144.145 272.037 144.28C272.037 144.416 272.037 144.619 272.105 144.754C272.172 144.889 272.172 145.025 272.308 145.092C272.443 145.228 272.646 145.363 272.917 145.363Z" fill="white"/>
<path d="M276.504 145.837C276.301 145.837 276.098 145.769 275.963 145.701C275.76 145.634 275.625 145.498 275.489 145.363C275.354 145.228 275.219 145.025 275.151 144.889C275.083 144.686 275.016 144.416 275.016 144.212C275.016 144.009 275.016 143.739 275.151 143.536C275.219 143.333 275.354 143.197 275.422 143.062C275.557 142.927 275.692 142.791 275.828 142.724C275.963 142.656 276.166 142.588 276.369 142.588C276.572 142.588 276.708 142.588 276.911 142.724C277.046 142.791 277.181 142.859 277.317 142.994C277.452 143.13 277.52 143.265 277.52 143.468C277.587 143.671 277.587 143.874 277.587 144.077V144.212C277.587 144.28 277.587 144.28 277.587 144.348H275.557C275.557 144.619 275.692 144.889 275.828 145.092C276.031 145.295 276.301 145.363 276.572 145.363C276.708 145.363 276.843 145.363 276.978 145.295C277.114 145.228 277.249 145.228 277.317 145.092L277.52 145.431C277.384 145.498 277.249 145.566 277.046 145.634C276.911 145.769 276.708 145.837 276.504 145.837ZM275.557 144.009H277.181C277.181 143.739 277.114 143.536 276.978 143.333C276.843 143.197 276.64 143.062 276.437 143.13C276.301 143.13 276.234 143.13 276.166 143.197C276.098 143.265 275.963 143.333 275.895 143.4C275.828 143.468 275.76 143.603 275.692 143.671C275.625 143.739 275.557 143.874 275.557 144.009Z" fill="white"/>
<path d="M279.819 145.769V146.852H279.413L279.346 145.702V145.363H279.481C279.549 145.363 279.549 145.296 279.616 145.228C279.684 145.16 279.684 145.093 279.752 145.025C279.819 144.889 279.819 144.754 279.819 144.686C279.819 144.551 279.887 144.348 279.887 144.077L280.022 142.724H281.917V145.363H282.323V145.702L282.256 146.852H281.782V145.769H279.819ZM280.361 144.145C280.361 144.416 280.293 144.619 280.225 144.889C280.158 145.025 280.09 145.16 280.022 145.363H281.444V143.198H280.496L280.361 144.145Z" fill="white"/>
<path d="M283.203 145.769V142.724H284.354C284.489 142.724 284.692 142.724 284.827 142.792C284.963 142.792 285.098 142.859 285.166 142.927C285.233 142.995 285.369 143.062 285.369 143.13C285.436 143.265 285.436 143.333 285.436 143.468C285.436 143.604 285.369 143.739 285.301 143.874C285.233 144.01 285.098 144.077 284.963 144.077C285.03 144.077 285.098 144.145 285.233 144.145C285.301 144.213 285.369 144.213 285.436 144.28C285.504 144.348 285.572 144.416 285.572 144.483C285.639 144.551 285.639 144.686 285.639 144.754C285.639 144.889 285.639 145.025 285.572 145.16C285.504 145.296 285.436 145.363 285.301 145.431C285.166 145.499 285.03 145.566 284.895 145.566C284.76 145.566 284.557 145.634 284.421 145.634L283.203 145.769ZM283.745 144.01H284.286C284.489 144.01 284.692 144.01 284.827 143.874C284.963 143.807 284.963 143.671 284.963 143.536C284.963 143.401 284.895 143.265 284.827 143.198C284.692 143.13 284.489 143.062 284.286 143.062H283.677L283.745 144.01ZM283.745 145.363H284.421C284.624 145.363 284.827 145.296 284.963 145.228C285.098 145.16 285.166 144.957 285.166 144.822C285.166 144.686 285.098 144.551 284.963 144.483C284.76 144.416 284.557 144.348 284.354 144.348H283.745V145.363Z" fill="white"/>
<path d="M286.52 145.769V142.724H286.993V144.01C286.993 144.145 286.993 144.348 286.993 144.551C286.993 144.754 286.993 144.957 286.926 145.16L287.129 144.822C287.196 144.686 287.264 144.619 287.332 144.483L288.482 142.724H288.956V145.769H288.482V144.483C288.482 144.348 288.482 144.145 288.482 143.942C288.482 143.739 288.482 143.536 288.55 143.333L288.347 143.671C288.279 143.807 288.211 143.874 288.144 144.01L286.993 145.769H286.52Z" fill="white"/>
<path d="M289.768 145.769L290.715 144.145L290.444 143.536C290.377 143.4 290.309 143.265 290.241 143.197C290.174 143.13 290.106 143.13 290.038 143.13H289.971C289.971 143.13 289.971 143.13 289.903 143.13L289.835 142.656C289.903 142.656 289.971 142.656 290.038 142.656C290.174 142.656 290.377 142.724 290.444 142.791C290.58 142.927 290.715 143.13 290.783 143.333L291.053 144.009H291.527V142.724H292.001V143.942H292.475L292.745 143.265C292.813 143.062 292.948 142.859 293.084 142.724C293.219 142.656 293.354 142.588 293.557 142.588C293.625 142.588 293.693 142.588 293.76 142.588L293.693 143.062H293.625H293.557C293.49 143.062 293.422 143.062 293.354 143.13C293.287 143.197 293.151 143.333 293.151 143.468L292.881 144.077L293.828 145.701H293.287L292.542 144.348H292.069V145.701H291.595V144.348H291.121L290.377 145.701L289.768 145.769Z" fill="white"/>
<path d="M295.791 145.837C295.588 145.837 295.385 145.769 295.25 145.701C295.047 145.634 294.912 145.498 294.776 145.363C294.641 145.228 294.505 145.025 294.505 144.889C294.438 144.686 294.37 144.416 294.37 144.212C294.37 144.009 294.438 143.739 294.505 143.536C294.573 143.333 294.708 143.197 294.776 143.062C294.912 142.927 295.047 142.791 295.182 142.724C295.318 142.656 295.521 142.588 295.724 142.588C295.927 142.588 296.062 142.588 296.265 142.724C296.4 142.791 296.536 142.859 296.671 142.994C296.806 143.13 296.874 143.265 296.942 143.468C297.009 143.671 297.009 143.874 297.009 144.077C297.009 144.145 297.009 144.212 297.009 144.212C297.009 144.28 297.009 144.28 297.009 144.348H294.979C294.979 144.619 295.115 144.889 295.25 145.092C295.453 145.295 295.656 145.363 295.927 145.363C296.062 145.363 296.197 145.363 296.333 145.295C296.468 145.228 296.603 145.228 296.671 145.092L296.874 145.431C296.739 145.498 296.603 145.566 296.468 145.634C296.13 145.769 295.994 145.837 295.791 145.837ZM294.844 144.009H296.468C296.468 143.739 296.4 143.536 296.265 143.333C296.13 143.197 295.927 143.062 295.724 143.13C295.588 143.13 295.521 143.13 295.385 143.197C295.318 143.265 295.182 143.333 295.115 143.4C295.047 143.468 294.979 143.603 294.912 143.671C294.844 143.739 294.844 143.874 294.844 144.009Z" fill="white"/>
<path d="M297.821 145.769V142.724H298.363V143.942H299.852V142.724H300.393V145.769H299.784V144.416H298.295V145.769H297.821Z" fill="white"/>
<path d="M301.408 145.769V142.724H301.882V144.01C301.882 144.145 301.882 144.348 301.882 144.551C301.882 144.754 301.882 144.957 301.882 145.16L302.085 144.822C302.153 144.686 302.22 144.619 302.288 144.483L303.438 142.724H303.912V145.769H303.438V144.483C303.438 144.348 303.438 144.145 303.438 143.942C303.438 143.739 303.438 143.536 303.438 143.333L303.235 143.671L303.032 144.01L301.882 145.769H301.408Z" fill="white"/>
<path d="M306.282 145.837C306.079 145.837 305.875 145.769 305.74 145.701C305.537 145.634 305.402 145.498 305.266 145.363C305.131 145.228 304.996 145.025 304.996 144.889C304.928 144.686 304.86 144.416 304.86 144.212C304.86 144.009 304.928 143.739 304.996 143.536C305.063 143.333 305.199 143.197 305.266 143.062C305.402 142.927 305.537 142.791 305.672 142.724C305.808 142.656 306.011 142.588 306.214 142.588C306.417 142.588 306.552 142.588 306.755 142.724C306.891 142.791 307.026 142.859 307.161 142.994C307.297 143.13 307.364 143.265 307.432 143.468C307.5 143.671 307.5 143.874 307.5 144.077C307.5 144.145 307.5 144.212 307.5 144.212C307.5 144.28 307.5 144.28 307.5 144.348H305.469C305.469 144.619 305.605 144.889 305.74 145.092C305.943 145.295 306.214 145.363 306.485 145.363C306.62 145.363 306.755 145.363 306.891 145.295C307.026 145.228 307.161 145.228 307.229 145.092L307.432 145.431C307.297 145.498 307.161 145.566 307.026 145.634C306.688 145.769 306.485 145.837 306.282 145.837ZM305.334 144.009H306.958C306.958 143.739 306.891 143.536 306.755 143.333C306.62 143.197 306.417 143.062 306.214 143.13C306.079 143.13 306.011 143.13 305.875 143.197C305.808 143.265 305.672 143.333 305.605 143.4C305.537 143.468 305.469 143.603 305.402 143.671C305.402 143.739 305.334 143.874 305.334 144.009Z" fill="white"/>
<path d="M234.721 181.016C254.012 181.016 273.304 181.02 292.595 181C293.266 181 293.454 181.139 293.453 181.861C293.43 199.394 293.431 216.925 293.451 234.458C293.453 235.129 293.283 235.28 292.644 235.28C254.039 235.264 215.431 235.264 176.826 235.278C176.201 235.278 175.999 235.155 176 234.46C176.02 216.902 176.02 199.345 176 181.789C175.999 181.138 176.158 181 176.776 181.001C196.091 181.019 215.406 181.016 234.721 181.016ZM267.645 197.088C267.594 197.084 267.542 197.078 267.491 197.074C267.491 193.321 267.472 189.568 267.508 185.815C267.515 185.12 267.364 184.939 266.667 184.94C237.946 184.961 209.225 184.961 180.504 184.94C179.805 184.94 179.663 185.122 179.663 185.815C179.684 200.689 179.684 215.561 179.663 230.435C179.661 231.136 179.815 231.307 180.507 231.307C216.639 231.287 252.773 231.287 288.905 231.307C289.605 231.307 289.744 231.121 289.744 230.431C289.723 215.557 289.729 200.685 289.729 185.811C289.729 185.69 289.716 185.565 289.732 185.445C289.78 185.063 289.633 184.949 289.257 184.95C283.341 184.962 277.427 184.962 271.512 184.949C271.109 184.947 271 185.126 270.907 185.479C270.605 186.634 270.26 187.777 269.939 188.926C269.5 190.498 269.072 192.073 268.631 193.645C268.306 194.793 267.973 195.941 267.645 197.088Z" fill="white"/>
<path d="M202.083 205.671C202.083 210.254 202.095 214.837 202.071 219.419C202.068 220.027 202.158 220.267 202.828 220.238C204.221 220.176 204.222 220.221 204.222 221.665C204.222 223.883 204.206 226.101 204.233 228.318C204.241 228.838 204.091 228.974 203.598 228.959C202.364 228.924 201.128 228.926 199.893 228.959C199.446 228.971 199.326 228.832 199.342 228.386C199.373 227.436 199.335 226.484 199.359 225.534C199.369 225.123 199.31 224.936 198.833 224.94C195.626 224.964 192.421 224.962 189.214 224.942C188.751 224.939 188.663 225.107 188.675 225.533C188.702 226.508 188.67 227.483 188.691 228.457C188.7 228.835 188.59 228.964 188.211 228.956C186.905 228.935 185.599 228.932 184.293 228.958C183.896 228.965 183.829 228.816 183.831 228.453C183.843 225.87 183.845 223.285 183.829 220.701C183.826 220.319 183.925 220.192 184.304 220.21C184.967 220.24 185.634 220.202 186.299 220.224C186.648 220.236 186.798 220.148 186.815 219.749C187.006 215.028 187.468 210.329 187.779 205.617C188.03 201.803 188.263 197.99 188.635 194.186C188.724 193.29 188.62 192.384 188.754 191.485C188.805 191.146 188.904 191.046 189.233 191.046C193.365 191.057 197.498 191.063 201.63 191.042C202.195 191.039 202.082 191.382 202.082 191.704C202.083 196.359 202.083 201.015 202.083 205.671ZM197.069 208.098C197.069 204.247 197.056 200.398 197.083 196.547C197.087 195.995 196.951 195.84 196.419 195.872C195.59 195.922 194.756 195.917 193.927 195.874C193.436 195.847 193.37 196.039 193.349 196.488C193.256 198.407 193.138 200.326 192.986 202.24C192.75 205.175 192.434 208.104 192.237 211.04C192.043 213.929 191.92 216.823 191.567 219.697C191.503 220.217 191.667 220.248 192.07 220.243C193.519 220.226 194.967 220.211 196.415 220.249C196.938 220.264 197.087 220.138 197.083 219.576C197.056 215.751 197.069 211.925 197.069 208.098Z" fill="white"/>
<path d="M265.569 211.507C266.112 210.649 266.253 209.69 266.468 208.771C266.863 207.085 267.24 205.396 267.736 203.735C268.286 201.894 268.807 200.044 269.34 198.196C269.672 197.046 270.011 195.898 270.338 194.745C270.63 193.712 270.931 192.678 271.185 191.633C271.287 191.212 271.447 191.03 271.898 191.039C273.37 191.067 274.843 191.064 276.316 191.041C276.74 191.033 276.884 191.136 276.882 191.603C276.869 202.526 276.868 213.449 276.884 224.372C276.885 224.889 276.705 224.97 276.272 224.959C275.18 224.933 274.085 224.915 272.994 224.965C272.432 224.991 272.342 224.791 272.342 224.267C272.36 217.098 272.354 209.93 272.354 202.762C272.354 202.494 272.354 202.227 272.354 201.788C271.842 202.636 271.853 203.473 271.638 204.234C271.306 205.411 271.089 206.623 270.791 207.811C270.215 210.1 269.632 212.386 269.022 214.665C268.58 216.318 268.071 217.951 267.627 219.602C267.221 221.113 266.848 222.634 266.49 224.157C266.364 224.688 266.197 224.997 265.563 224.968C264.33 224.91 263.092 224.915 261.859 224.967C261.263 224.991 261.122 224.823 261.123 224.213C261.144 215.191 261.137 206.169 261.137 197.148C261.137 195.344 261.156 193.539 261.126 191.736C261.117 191.212 261.22 191.008 261.782 191.036C262.824 191.089 263.873 191.086 264.916 191.036C265.467 191.01 265.579 191.196 265.577 191.73C265.559 198.069 265.566 204.41 265.566 210.749C265.569 211.002 265.569 211.255 265.569 211.507Z" fill="white"/>
<path d="M256.017 225.021C255.353 225.021 254.686 224.997 254.023 225.03C253.618 225.05 253.497 224.918 253.512 224.504C253.574 222.818 253.27 221.152 253.194 219.474C253.174 219.043 253.056 218.85 252.568 218.862C250.977 218.9 249.386 218.894 247.795 218.865C247.341 218.856 247.169 218.989 247.152 219.453C247.086 221.133 246.81 222.799 246.83 224.484C246.834 224.87 246.773 225.041 246.338 225.031C245.079 225 243.82 224.996 242.561 225.033C242.072 225.047 242.097 224.79 242.115 224.453C242.271 221.561 242.354 218.661 242.599 215.776C242.822 213.178 242.874 210.575 243.097 207.977C243.463 203.707 243.522 199.416 243.934 195.148C244.048 193.962 243.965 192.762 244.094 191.571C244.135 191.191 244.24 191.092 244.603 191.093C248.404 191.107 252.203 191.108 256.004 191.092C256.412 191.09 256.505 191.221 256.529 191.623C256.767 195.683 257.003 199.744 257.266 203.801C257.476 207.033 257.721 210.266 257.858 213.499C257.988 216.542 258.388 219.566 258.373 222.616C258.37 223.247 258.443 223.881 258.512 224.51C258.559 224.933 258.411 225.05 258.012 225.03C257.349 224.997 256.682 225.021 256.017 225.021ZM250.186 214.213C250.186 214.218 250.186 214.224 250.186 214.228C250.897 214.228 251.61 214.204 252.32 214.237C252.768 214.256 252.881 214.165 252.871 213.647C252.819 211.138 252.541 208.647 252.387 206.147C252.203 203.186 252.091 200.221 251.92 197.258C251.841 195.894 251.811 195.896 250.504 195.896C250.076 195.896 249.647 195.925 249.223 195.887C248.806 195.85 248.676 195.976 248.629 196.428C248.456 198.052 248.483 199.688 248.331 201.307C247.94 205.449 247.83 209.609 247.505 213.754C247.471 214.193 247.652 214.224 247.982 214.218C248.714 214.203 249.45 214.213 250.186 214.213Z" fill="white"/>
<path d="M239.55 208C239.55 213.411 239.541 218.824 239.561 224.235C239.563 224.789 239.451 224.99 238.871 224.967C237.614 224.918 236.353 224.926 235.096 224.965C234.59 224.981 234.471 224.829 234.474 224.321C234.493 218.446 234.485 212.572 234.485 206.697C234.485 203.309 234.475 199.921 234.495 196.532C234.498 196.042 234.403 195.84 233.881 195.871C233.1 195.917 232.314 195.901 231.531 195.875C231.141 195.862 231.005 195.973 230.988 196.398C230.747 202.336 230.311 208.259 229.903 214.187C229.669 217.587 229.574 220.997 229.311 224.396C229.277 224.832 229.201 225.022 228.711 225.012C226.93 224.977 225.148 224.989 223.367 225.006C222.977 225.011 222.83 224.91 222.838 224.482C222.862 223.166 222.864 221.849 222.838 220.533C222.83 220.104 222.977 220.017 223.364 220.012C224.725 219.997 224.662 219.978 224.736 218.566C224.914 215.162 225.229 211.764 225.348 208.359C225.447 205.459 225.79 202.581 225.884 199.682C225.971 196.982 226.23 194.288 226.384 191.589C226.41 191.136 226.56 191.039 226.979 191.042C230.968 191.058 234.959 191.063 238.948 191.039C239.464 191.036 239.563 191.194 239.561 191.692C239.543 197.128 239.55 202.564 239.55 208Z" fill="white"/>
<path d="M207.048 208.007C207.048 202.595 207.055 197.182 207.036 191.768C207.035 191.225 207.13 191.032 207.716 191.036C211.803 191.067 215.889 191.061 219.974 191.041C220.467 191.038 220.62 191.158 220.602 191.677C220.563 192.87 220.563 194.068 220.602 195.26C220.621 195.792 220.448 195.899 219.962 195.894C217.516 195.869 215.069 195.9 212.622 195.869C212.088 195.862 211.949 196.007 211.955 196.554C211.984 199.261 211.985 201.967 211.955 204.673C211.949 205.241 212.126 205.361 212.641 205.351C214.185 205.319 215.729 205.355 217.273 205.329C217.731 205.322 217.885 205.439 217.871 205.932C217.834 207.15 217.832 208.37 217.871 209.588C217.886 210.095 217.712 210.191 217.266 210.184C215.699 210.159 214.131 210.19 212.562 210.165C212.105 210.157 211.955 210.288 211.958 210.774C211.978 213.675 211.981 216.577 211.957 219.478C211.952 219.996 212.102 220.131 212.597 220.126C215.043 220.102 217.49 220.132 219.937 220.102C220.471 220.094 220.622 220.233 220.602 220.787C220.558 221.979 220.572 223.175 220.598 224.37C220.607 224.794 220.533 224.964 220.063 224.962C215.906 224.943 211.748 224.94 207.592 224.965C207.063 224.968 207.039 224.737 207.04 224.318C207.05 218.881 207.048 213.445 207.048 208.007Z" fill="white"/>
<path d="M280.686 221.299C280.686 220.955 280.686 220.719 280.686 220.483C280.686 210.981 280.691 201.479 280.673 191.977C280.671 191.395 280.771 191.178 281.393 191.206C282.625 191.263 283.861 191.241 285.096 191.213C285.506 191.205 285.602 191.341 285.602 191.745C285.59 200.37 285.595 208.994 285.589 217.619C285.589 217.811 285.659 218 285.396 218.169C283.844 219.171 282.315 220.21 280.686 221.299Z" fill="white"/>
<path d="M285.592 220.44C285.592 221.938 285.579 223.323 285.601 224.706C285.606 225.093 285.494 225.199 285.123 225.194C283.797 225.172 282.471 225.172 281.147 225.194C280.76 225.199 280.739 225.031 280.666 224.694C280.428 223.573 281.276 223.263 281.924 222.825C283.101 222.029 284.305 221.274 285.592 220.44Z" fill="white"/>
<path fill-rule="evenodd" clip-rule="evenodd" d="M37.7245 221.752C37.7245 220.93 37.2484 220.382 36.2561 220.382H35.0921V223.147H36.2561C37.2484 223.147 37.7245 222.574 37.7245 221.752ZM35.0921 216.931V219.174H36.045C36.8122 219.174 37.2746 218.775 37.2746 217.978C37.2746 217.268 36.8247 216.931 36.045 216.931H35.0921ZM39.6158 221.814C39.6158 223.433 38.3199 224.368 36.5211 224.368H32.4997V224.343C32.8302 224.105 33.2807 223.546 33.2807 222.425V217.641C33.2807 216.62 32.9227 216.01 32.4997 215.735V215.71H36.1505C38.135 215.71 39.1403 216.408 39.1403 217.891C39.1403 218.838 38.3862 219.609 37.6189 219.722V219.759C38.7167 219.884 39.6158 220.805 39.6158 221.814ZM48.4796 220.07C48.4796 217.965 47.3949 216.757 45.596 216.757C43.8503 216.757 42.7918 218.053 42.7918 219.995C42.7918 222.039 43.7709 223.321 45.6622 223.321C47.2893 223.321 48.4802 222.063 48.4802 220.07H48.4796ZM40.8205 220.12C40.8205 217.317 42.6725 215.462 45.7285 215.462C48.5589 215.462 50.4509 217.267 50.4509 219.946C50.4509 222.723 48.4796 224.617 45.5298 224.617C42.5669 224.617 40.8205 222.673 40.8205 220.12ZM50.5046 224.342C50.8752 224.044 51.4569 223.309 51.8011 222.325L53.5207 217.405C53.785 216.658 53.6531 216.035 53.2957 215.735V215.71H56.9066V215.735C56.5629 216.01 56.4705 216.608 56.7348 217.355L58.4811 222.325C58.8248 223.309 59.4071 224.043 59.7777 224.343V224.368H56.7216V224.343C56.9066 224.18 56.9859 223.695 56.6954 222.81L55.7825 220.02C55.5045 219.161 55.2402 218.315 55.0952 217.442H55.0415C54.9228 218.314 54.6447 219.161 54.3667 220.02L53.4544 222.81C53.1633 223.695 53.2426 224.193 53.4282 224.342V224.367H50.504V224.342H50.5046ZM67.503 220.07C67.503 217.965 66.4183 216.757 64.6194 216.757C62.8737 216.757 61.8152 218.053 61.8152 219.995C61.8152 222.039 62.7943 223.321 64.6856 223.321C66.3127 223.321 67.5036 222.063 67.5036 220.07H67.503ZM59.8445 220.12C59.8445 217.317 61.6965 215.462 64.7519 215.462C67.5823 215.462 69.4743 217.267 69.4743 219.946C69.4743 222.723 67.503 224.617 64.5538 224.617C61.5903 224.617 59.8445 222.673 59.8445 220.12ZM78.6954 217.579V222.549C78.6954 223.533 79.0653 224.13 79.409 224.342V224.367H76.208V224.342C76.5123 224.13 76.8828 223.521 76.8828 222.549V220.369H73.3638V222.5C73.3638 223.533 73.7212 224.13 74.0386 224.343V224.368H70.8377V224.343C71.1688 224.13 71.5518 223.521 71.5518 222.5V217.579C71.5518 216.545 71.1813 215.948 70.8377 215.736V215.711H74.0386V215.736C73.7343 215.948 73.3638 216.558 73.3638 217.579V219.124H76.8828V217.579C76.8828 216.545 76.5254 215.948 76.208 215.736V215.711H79.409V215.736C79.0778 215.948 78.6948 216.558 78.6948 217.579H78.6954ZM87.7573 217.89L87.7304 217.903C87.4267 217.405 86.8044 216.981 86.0109 216.981H85.0187V222.4C85.0187 223.471 85.3892 224.13 85.8259 224.343V224.368H82.4V224.343C82.783 224.13 83.2067 223.458 83.2067 222.4V216.981H82.2013C81.4078 216.981 80.7861 217.404 80.4818 217.902L80.4556 217.89L80.6805 215.61C81.2885 215.685 81.8439 215.71 82.4925 215.71H85.7197C86.3683 215.71 86.9238 215.685 87.5317 215.61L87.7566 217.89L87.7573 217.89ZM95.4564 221.989L95.0858 224.467C94.5966 224.392 94.2523 224.367 93.4719 224.367H88.8026V224.342C89.1338 224.131 89.5168 223.521 89.5168 222.499V217.579C89.5168 216.545 89.1463 215.948 88.8026 215.736V215.711H93.5513C94.0805 215.711 94.6628 215.673 94.9534 215.611L95.1783 217.841L95.1521 217.853C94.8347 217.243 94.1067 216.931 93.0752 216.931H91.3294V219.124H92.3341C93.4319 219.124 93.8025 219.111 94.3979 219.036L94.0143 221.129H93.988C93.7631 220.568 93.287 220.344 92.5459 220.344H91.3294V223.147H92.7709C93.9349 223.147 94.8609 222.736 95.4301 221.976L95.4564 221.989ZM101.806 218.613C101.806 217.467 101.25 216.944 100.047 216.944H99.2665V220.27L100.047 220.282C101.264 220.295 101.806 219.684 101.806 218.613ZM103.685 218.526C103.685 220.556 102.454 221.516 100.351 221.516H99.2665V222.549C99.2665 223.533 99.6371 224.13 99.9807 224.342V224.367H96.7398V224.342C97.0709 224.13 97.4546 223.521 97.4546 222.499V217.529C97.4546 216.545 97.084 215.947 96.7398 215.736V215.711H100.351C102.454 215.711 103.685 216.732 103.685 218.526ZM114.981 217.579V222.499C114.981 223.533 115.353 224.13 115.696 224.342V224.367H112.442V224.342C112.773 224.13 113.156 223.521 113.156 222.499V217.579C113.156 216.545 112.786 215.948 112.442 215.736V215.711H115.696V215.736C115.365 215.948 114.982 216.558 114.982 217.579H114.981ZM110.035 221.503C110.035 220.419 109.439 219.909 108.157 219.909H107.389V223.122H108.157C109.439 223.122 110.035 222.549 110.035 221.502V221.503ZM111.926 221.403C111.926 223.359 110.485 224.367 108.752 224.367H104.862V224.342C105.194 224.13 105.577 223.521 105.577 222.499V217.529C105.577 216.545 105.207 215.948 104.862 215.736V215.711H108.103V215.736C107.772 215.948 107.389 216.558 107.389 217.579V218.675H108.633C110.563 218.675 111.926 219.634 111.926 221.403ZM40.9267 235.617V235.642L38.2681 236.065C38.1887 235.779 37.9244 235.305 37.6195 234.882L34.9478 231.146L37.1834 228.169C37.5139 227.72 37.6333 227.409 37.6195 227.172H40.3712V227.197C39.8151 227.446 39.2341 228.032 38.8104 228.579L36.9453 230.959L39.4584 234.421C39.9082 235.044 40.2788 235.368 40.9267 235.617ZM35.4501 235.804V235.829H32.276V235.804C32.6065 235.592 32.9902 234.982 32.9902 233.961V228.99C32.9902 228.006 32.6197 227.408 32.2754 227.196V227.171H35.4501V227.196C35.1465 227.408 34.8022 228.019 34.8022 229.04V233.973C34.8022 234.994 35.1458 235.591 35.4501 235.803V235.804ZM49.4331 227.171V227.196C48.7714 227.669 48.3746 228.267 48.0703 229.04L46.2052 233.76C45.7953 234.794 45.7953 235.355 46.2183 235.803V235.828H43.0705V235.803C43.5597 235.342 43.9827 234.757 44.3532 233.835L44.8562 232.589H43.6253L41.8933 228.915C41.509 228.118 41.1654 227.545 40.6762 227.196V227.171H43.7715V227.196C43.4804 227.719 43.4935 228.168 43.8371 228.915L45.1605 231.83L46.3377 228.915C46.6282 228.193 46.6813 227.719 46.5358 227.171H49.4331ZM48.5208 235.803C48.8913 235.504 49.4737 234.769 49.8173 233.785L51.5375 228.865C51.8018 228.118 51.6687 227.495 51.3125 227.196V227.171H54.9228V227.196C54.5791 227.47 54.486 228.068 54.7509 228.815L56.4967 233.786C56.8404 234.769 57.4227 235.504 57.7932 235.803V235.828H54.7378V235.803C54.9228 235.641 55.0021 235.155 54.711 234.271L53.7987 231.482C53.5207 230.622 53.2557 229.775 53.1108 228.903H53.0577C52.9389 229.775 52.6609 230.622 52.3829 231.482L51.4706 234.271C51.1794 235.155 51.2582 235.654 51.4437 235.803V235.828H48.5208V235.803ZM63.5091 232.964C63.5091 231.88 62.9136 231.369 61.6309 231.369H60.8636V234.583H61.6309C62.9136 234.583 63.5091 234.01 63.5091 232.964ZM65.4004 232.864C65.4004 234.819 63.9583 235.828 62.2263 235.828H58.3368V235.803C58.668 235.591 59.051 234.981 59.051 233.96V228.99C59.051 228.006 58.6805 227.408 58.3368 227.196V227.171H61.5778V227.196C61.2466 227.408 60.8636 228.019 60.8636 229.04V230.136H62.107C64.0377 230.136 65.4004 231.095 65.4004 232.864ZM72.4385 229.352L72.4122 229.364C72.1079 228.865 71.4862 228.442 70.6927 228.442H69.7005V233.86C69.7005 234.932 70.071 235.591 70.5071 235.803V235.828H67.0812V235.803C67.4649 235.591 67.8885 234.919 67.8885 233.86V228.442H66.8825C66.089 228.442 65.4679 228.865 65.1636 229.364L65.1368 229.352L65.3617 227.072C65.9703 227.147 66.5257 227.171 67.1737 227.171H70.4015C71.0501 227.171 71.6049 227.147 72.2135 227.072L72.4385 229.352ZM81.3285 227.171V227.196C80.6668 227.669 80.2706 228.267 79.9663 229.04L78.1012 233.76C77.6907 234.794 77.6907 235.355 78.1137 235.803V235.828H74.9659V235.803C75.4557 235.342 75.8781 234.757 76.2493 233.835L76.7516 232.589H75.5213L73.7887 228.915C73.4051 228.118 73.0614 227.545 72.5722 227.196V227.171H75.6669V227.196C75.3758 227.719 75.3895 228.168 75.7332 228.915L77.0559 231.83L78.2331 228.915C78.5243 228.193 78.5767 227.719 78.4318 227.171H81.3285V227.171ZM87.2155 230.074C87.2155 228.928 86.6601 228.405 85.4567 228.405H84.6756V231.73L85.4567 231.743C86.6732 231.755 87.2155 231.145 87.2155 230.074ZM89.0944 229.986C89.0944 232.017 87.8635 232.976 85.7603 232.976H84.6763V234.01C84.6763 234.994 85.0462 235.592 85.3904 235.803V235.828H82.1495V235.803C82.4806 235.592 82.8637 234.981 82.8637 233.96V228.99C82.8637 228.006 82.4931 227.408 82.1495 227.196V227.171H85.761C87.8641 227.171 89.0944 228.193 89.0944 229.986ZM100.391 229.04V233.96C100.391 234.994 100.762 235.591 101.105 235.803V235.828H97.8519V235.803C98.1825 235.591 98.5655 234.981 98.5655 233.96V229.04C98.5655 228.006 98.1956 227.408 97.8519 227.196V227.171H101.105V227.196C100.775 227.408 100.391 228.019 100.391 229.04ZM95.4439 232.964C95.4439 231.88 94.849 231.369 93.5656 231.369H92.7984V234.583H93.5656C94.849 234.583 95.4439 234.01 95.4439 232.964ZM97.3358 232.864C97.3358 234.819 95.8937 235.828 94.1611 235.828H90.2722V235.803C90.6033 235.591 90.9864 234.981 90.9864 233.96V228.99C90.9864 228.006 90.6158 227.408 90.2722 227.196V227.171H93.5125V227.196C93.182 227.408 92.7984 228.019 92.7984 229.04V230.136H94.0418C95.9725 230.136 97.3358 231.095 97.3358 232.864Z" fill="white"/>
<path fill-rule="evenodd" clip-rule="evenodd" d="M22.3351 210.338C22.0945 209.97 21.824 209.512 21.6971 209.144C21.4409 208.403 21.3753 207.922 21.3741 207.29C21.3741 205.242 23.0261 203.582 25.0649 203.582C27.1037 203.582 28.7564 205.242 28.7564 207.29H26.9106C26.9113 207.047 26.8641 206.806 26.7717 206.581C26.6792 206.357 26.5435 206.152 26.372 205.98C26.2006 205.808 25.997 205.671 25.7727 205.578C25.5484 205.484 25.3079 205.436 25.0649 205.435C24.822 205.436 24.5816 205.484 24.3573 205.578C24.1331 205.671 23.9295 205.808 23.7582 205.98C23.5869 206.153 23.4511 206.357 23.3587 206.582C23.2664 206.806 23.2192 207.047 23.2198 207.29C23.2198 209.337 24.8725 210.998 26.9106 210.998C28.9494 210.998 30.6021 209.337 30.6021 207.29C30.6021 205.242 28.9494 203.582 26.9106 203.582H15.6469C15.6557 202.952 15.6426 202.337 15.5157 201.727H25.4173L25.4467 201.669H27.508L27.4642 201.755C30.2128 202.045 32.3285 204.326 32.4216 207.101C32.5141 209.875 30.5565 212.294 27.8335 212.77V216.732C28.3738 216.922 28.8416 217.275 29.1724 217.742C29.5031 218.21 29.6805 218.769 29.6799 219.341C29.6808 219.914 29.5036 220.474 29.1728 220.942C28.842 221.409 28.374 221.763 27.8335 221.953V235.178C27.2181 235.189 26.6032 235.216 25.9884 235.223V222.123H22.2976V234.84C21.679 234.708 21.0629 234.572 20.4512 234.416V222.123H17.6826V233.62C17.0598 233.417 16.4444 233.192 15.8375 232.946V222.123H13.0689V231.58C12.4214 231.193 11.8041 230.757 11.2226 230.276V222.123H7.53111V224.838C7.0025 223.361 5.59915 221.79 5.47606 220.264L6.60887 220.269H26.9106C27.0321 220.268 27.1524 220.244 27.2645 220.198C27.3767 220.151 27.4785 220.082 27.5642 219.996C27.6499 219.91 27.7178 219.808 27.764 219.696C27.8102 219.583 27.8338 219.463 27.8335 219.341C27.8338 219.22 27.8101 219.1 27.7638 218.987C27.7176 218.875 27.6497 218.773 27.564 218.687C27.4783 218.601 27.3765 218.533 27.2644 218.486C27.1523 218.439 27.0321 218.415 26.9106 218.415H25.8484C25.8451 218.403 25.8415 218.392 25.8378 218.38H4.64567V216.068H25.9878V212.77C25.2686 212.647 24.581 212.382 23.9646 211.992H3.54785V210.338H22.3351Z" fill="white"/>
<path d="M9.14896 181.379C10.0143 181.361 10.8766 181.409 11.7382 181.481C11.7407 176.586 15.7059 172.604 20.5789 172.604C25.4525 172.604 29.4189 176.589 29.4189 181.486C29.4189 185.334 26.9664 188.612 23.5518 189.842C21.5555 189.936 19.5485 190.369 17.6172 191.07V185.156C20.9975 185.204 21.8504 186.71 22.1928 187.849C22.3446 188.355 22.807 188.683 23.3081 188.683C23.4904 188.682 23.6701 188.639 23.8327 188.556C23.9953 188.474 24.1364 188.354 24.2448 188.208C24.3532 188.061 24.4259 187.891 24.4572 187.711C24.4884 187.532 24.4772 187.347 24.4247 187.173C24.0141 185.808 23.0888 184.264 21.0412 183.428C22.9488 182.348 23.9904 180.381 23.9904 177.68C23.9907 177.526 23.9608 177.374 23.9024 177.232C23.844 177.091 23.7582 176.962 23.6499 176.853C23.5417 176.744 23.4131 176.658 23.2714 176.599C23.1298 176.54 22.9779 176.509 22.8245 176.509C22.671 176.509 22.5192 176.54 22.3775 176.599C22.2359 176.658 22.1073 176.744 21.999 176.853C21.8907 176.962 21.805 177.091 21.7465 177.232C21.6881 177.374 21.6582 177.526 21.6586 177.68C21.6586 180.386 20.3321 181.807 17.6172 182.01V177.73C17.6179 177.38 17.4797 177.045 17.233 176.797C16.9864 176.549 16.6515 176.41 16.3019 176.409C15.9524 176.41 15.6175 176.549 15.3708 176.797C15.1242 177.045 14.986 177.38 14.9867 177.73V192.209C14.9867 192.211 14.9854 192.211 14.9854 192.211C11.304 194.065 8.06739 196.855 5.91862 200.011C2.94383 204.384 1.69418 209.563 2.06283 214.616C2.06283 214.633 2.06595 214.649 2.06595 214.666C3.04255 226.455 12.876 235.717 24.8608 235.717C25.3806 235.717 27.3901 235.7 27.8999 235.663C27.8343 234.821 27.8774 233.984 28.078 233.181C21.6173 233.422 13.8726 231.353 9.33578 225.83C6.784 222.723 5.38564 219.161 4.98075 215.558C4.09225 207.623 8.0174 199.465 14.9848 195.4L14.9861 195.399V202.599C14.9861 203.329 15.5746 203.92 16.3013 203.92C16.6509 203.919 16.9858 203.779 17.2324 203.532C17.4791 203.284 17.6172 202.948 17.6166 202.599V194.128C19.2887 193.467 21.0447 193.044 22.8339 192.869C22.8507 192.739 25.505 192.733 26.0479 192.782C28.6503 193.02 31.1209 194.191 32.9697 196.048C36.5394 199.634 37.286 205.342 34.7299 209.721C33.1903 212.356 30.6573 214.189 27.8212 214.94V217.812C29.748 217.447 31.5715 216.664 33.1634 215.519C39.3948 211.057 40.5001 202.619 36.9011 196.609C35.6222 194.461 33.7745 192.707 31.562 191.543C30.4338 190.948 29.2328 190.502 27.9893 190.218L27.9855 190.217C30.4442 188.109 32.0106 184.981 32.0106 181.486C32.0113 175.152 26.8827 170 20.5789 170C14.3094 170 9.20644 175.095 9.14833 181.379" fill="white"/>
<defs>
<clipPath id="clip0">
<rect width="201" height="35" fill="white" transform="translate(171 19)"/>
</clipPath>
</defs>
</svg>
