<svg width="85" height="45" viewBox="0 0 85 45" fill="none" xmlns="http://www.w3.org/2000/svg">
<path d="M11.245 41.718C7.71384 39.8178 4.95687 37.1695 2.97412 33.7728C0.991369 30.3785 0 26.5358 0 22.2422C0 17.951 0.991369 14.1224 2.97412 10.7541C4.95687 7.38574 7.71384 4.75152 11.245 2.85138C14.7762 0.951248 18.7417 0 23.1415 0C27.5956 0 31.5871 0.951248 35.1183 2.85138C38.6494 4.75388 41.404 7.3881 43.3891 10.7541C45.3719 14.1224 46.3633 17.9533 46.3633 22.2422C46.3633 26.5334 45.3719 30.3785 43.3891 33.7728C41.4064 37.1695 38.6494 39.8178 35.1183 41.718C31.5871 43.6205 27.5932 44.5694 23.1415 44.5694C18.7417 44.5717 14.7762 43.6205 11.245 41.718ZM32.4321 32.104C34.8775 29.6067 36.0978 26.3186 36.0978 22.2446C36.0978 18.1705 34.8751 14.8848 32.4321 12.3851C29.9867 9.88778 26.8922 8.63676 23.1439 8.63676C19.3955 8.63676 16.3128 9.88778 13.8958 12.3851C11.4787 14.8848 10.2702 18.1705 10.2702 22.2446C10.2702 26.3186 11.4787 29.6067 13.8958 32.104C16.3128 34.6037 19.3955 35.8524 23.1439 35.8524C26.8898 35.8524 29.9867 34.6037 32.4321 32.104Z" fill="#A9DCFD"/>
<path d="M21.163 41.718C17.6318 39.8178 14.8748 37.1695 12.8921 33.7728C10.9093 30.3785 9.91797 26.5358 9.91797 22.2422C9.91797 17.951 10.9093 14.1224 12.8921 10.7541C14.8748 7.38574 17.6318 4.75152 21.163 2.85138C24.6942 0.951248 28.6596 0 33.0595 0C37.5136 0 41.505 0.951248 45.0362 2.85138C48.5674 4.75388 51.322 7.3881 53.3071 10.7541C55.2899 14.1224 56.2813 17.9533 56.2813 22.2422C56.2813 26.5334 55.2899 30.3785 53.3071 33.7728C51.3244 37.1695 48.5674 39.8178 45.0362 41.718C41.505 43.6205 37.5112 44.5694 33.0595 44.5694C28.6596 44.5717 24.6942 43.6205 21.163 41.718ZM42.3477 32.104C44.7931 29.6067 46.0134 26.3186 46.0134 22.2446C46.0134 18.1705 44.7908 14.8848 42.3477 12.3851C39.9023 9.88778 36.8078 8.63676 33.0595 8.63676C29.3111 8.63676 26.2284 9.88778 23.8114 12.3851C21.3943 14.8848 20.1858 18.1705 20.1858 22.2446C20.1858 26.3186 21.3943 29.6067 23.8114 32.104C26.2284 34.6037 29.3111 35.8524 33.0595 35.8524C36.8078 35.8524 39.9047 34.6037 42.3477 32.104Z" fill="#61A0FA"/>
<path d="M31.079 41.718C27.5478 39.8178 24.7909 37.1695 22.8081 33.7728C20.8254 30.3785 19.834 26.5358 19.834 22.2422C19.834 17.951 20.8254 14.1224 22.8081 10.7541C24.7909 7.38574 27.5478 4.75152 31.079 2.85138C34.6102 0.951248 38.5757 0 42.9755 0C47.4296 0 51.421 0.951248 54.9522 2.85138C58.4834 4.75388 61.2404 7.3881 63.2231 10.7541C65.2059 14.1224 66.1973 17.9533 66.1973 22.2422C66.1973 26.5334 65.2059 30.3785 63.2231 33.7728C61.2404 37.1695 58.4834 39.8178 54.9522 41.718C51.421 43.6205 47.4272 44.5694 42.9755 44.5694C38.5757 44.5717 34.6102 43.6205 31.079 41.718ZM52.2637 32.104C54.7091 29.6067 55.9295 26.3186 55.9295 22.2446C55.9295 18.1705 54.7067 14.8848 52.2637 12.3851C49.8183 9.88778 46.7238 8.63676 42.9755 8.63676C39.2271 8.63676 36.1445 9.88778 33.7274 12.3851C31.3103 14.8848 30.1018 18.1705 30.1018 22.2446C30.1018 26.3186 31.3103 29.6067 33.7274 32.104C36.1445 34.6037 39.2271 35.8524 42.9755 35.8524C46.7238 35.8524 49.8207 34.6037 52.2637 32.104Z" fill="#2659B3"/>
<path d="M41.1278 41.718C37.5967 39.8178 34.8397 37.1695 32.8569 33.7728C30.8742 30.3785 29.8828 26.5358 29.8828 22.2422C29.8828 17.951 30.8742 14.1224 32.8569 10.7541C34.8397 7.38574 37.5967 4.75152 41.1278 2.85138C44.659 0.951248 48.6245 0 53.0243 0C57.4784 0 61.4699 0.951248 65.0034 2.85138C68.5346 4.75388 71.2892 7.3881 73.2743 10.7541C75.2571 14.1224 76.2484 17.9533 76.2484 22.2422C76.2484 26.5334 75.2571 30.3785 73.2743 33.7728C71.2916 37.1695 68.5346 39.8178 65.0034 41.718C61.4723 43.6205 57.4784 44.5694 53.0243 44.5694C48.6245 44.5717 44.659 43.6205 41.1278 41.718ZM62.3125 32.104C64.7579 29.6067 65.9783 26.3186 65.9783 22.2446C65.9783 18.1705 64.7556 14.8848 62.3125 12.3851C59.8671 9.88778 56.7727 8.63676 53.0243 8.63676C49.276 8.63676 46.1933 9.88778 43.7762 12.3851C41.3591 14.8848 40.1506 18.1705 40.1506 22.2446C40.1506 26.3186 41.3591 29.6067 43.7762 32.104C46.1933 34.6037 49.276 35.8524 53.0243 35.8524C56.7727 35.8524 59.8695 34.6037 62.3125 32.104Z" fill="#082E83"/>
<path d="M80.5 45C82.9853 45 85 42.9853 85 40.5C85 38.0147 82.9853 36 80.5 36C78.0147 36 76 38.0147 76 40.5C76 42.9853 78.0147 45 80.5 45Z" fill="#082E83"/>
</svg>
